<svg width="376" height="100" viewBox="0 0 376 100" fill="none" xmlns="http://www.w3.org/2000/svg">
<path d="M25.36 80V32.32H6.16V24H53.76V32.32H34V80H25.36ZM72.0819 24H114.482V32.32H80.7219V47.12H110.082V55.44H80.7219V71.68H114.482V80H72.0819V24ZM186.524 72.16C185.137 73.44 183.27 74.7467 180.924 76.08C178.577 77.4133 175.857 78.5333 172.764 79.44C169.724 80.3467 166.497 80.8 163.084 80.8C158.817 80.8 154.844 80.1333 151.164 78.8C147.484 77.4133 144.257 75.4667 141.484 72.96C138.764 70.4533 136.63 67.44 135.084 63.92C133.537 60.3467 132.764 56.3733 132.764 52C132.764 47.8933 133.564 44.1067 135.164 40.64C136.817 37.1733 139.057 34.16 141.884 31.6C144.71 29.04 147.964 27.0667 151.644 25.68C155.324 24.24 159.217 23.52 163.324 23.52C166.737 23.52 169.964 24 173.004 24.96C176.097 25.8667 178.844 27.04 181.244 28.48C183.697 29.92 185.67 31.4133 187.164 32.96L181.804 39.84C179.244 37.6 176.39 35.76 173.244 34.32C170.15 32.8267 166.684 32.08 162.844 32.08C160.124 32.08 157.484 32.5333 154.924 33.44C152.417 34.3467 150.15 35.68 148.124 37.44C146.15 39.1467 144.55 41.2267 143.324 43.68C142.15 46.1333 141.564 48.9067 141.564 52C141.564 56.48 142.604 60.24 144.684 63.28C146.817 66.2667 149.59 68.5333 153.004 70.08C156.417 71.5733 160.097 72.32 164.044 72.32C166.817 72.32 169.324 71.9467 171.564 71.2C173.804 70.4533 175.804 69.52 177.564 68.4C179.324 67.28 180.897 66.16 182.284 65.04L186.524 72.16ZM254.049 24H262.689V80H254.289L213.969 36.4C214.289 39.8133 214.609 43.2 214.929 46.56C215.249 49.92 215.409 53.3067 215.409 56.72V80H206.769V24H215.009L255.409 68.72C255.036 66.0533 254.743 63.2267 254.529 60.24C254.369 57.2 254.236 54.16 254.129 51.12C254.076 48.0267 254.049 45.12 254.049 42.4V24ZM345.884 52C345.884 56.0533 345.11 59.84 343.564 63.36C342.017 66.8267 339.83 69.8667 337.004 72.48C334.177 75.0933 330.844 77.1467 327.004 78.64C323.164 80.08 318.924 80.8 314.284 80.8C309.697 80.8 305.457 80.08 301.564 78.64C297.724 77.1467 294.39 75.0933 291.564 72.48C288.79 69.8667 286.63 66.8267 285.084 63.36C283.537 59.84 282.764 56.0533 282.764 52C282.764 47.9467 283.537 44.1867 285.084 40.72C286.63 37.2 288.79 34.1333 291.564 31.52C294.39 28.9067 297.724 26.88 301.564 25.44C305.457 23.9467 309.697 23.2 314.284 23.2C318.924 23.2 323.164 23.9467 327.004 25.44C330.844 26.88 334.177 28.9067 337.004 31.52C339.83 34.1333 342.017 37.2 343.564 40.72C345.11 44.1867 345.884 47.9467 345.884 52ZM337.084 52C337.084 48.1067 336.097 44.64 334.124 41.6C332.204 38.5067 329.51 36.08 326.044 34.32C322.63 32.5067 318.71 31.6 314.284 31.6C309.804 31.6 305.857 32.5067 302.444 34.32C299.03 36.08 296.364 38.5067 294.444 41.6C292.524 44.64 291.564 48.1067 291.564 52C291.564 55.8933 292.524 59.3867 294.444 62.48C296.364 65.52 299.03 67.9467 302.444 69.76C305.857 71.52 309.804 72.4 314.284 72.4C318.71 72.4 322.63 71.52 326.044 69.76C329.51 67.9467 332.204 65.4933 334.124 62.4C336.097 59.3067 337.084 55.84 337.084 52Z" fill="white"/>
<path d="M356.5 76.9694C355.3 83.7694 340.667 90.1361 333.5 92.4694L360.5 87.4694L375 83.4694C376.5 77.4694 357.7 70.1694 356.5 76.9694Z" fill="#6B399C"/>
<path d="M356 70.7347C354.8 77.5347 340.167 83.9014 333 86.2347L360 81.2347L374.5 77.2347C376 71.2347 357.2 63.9347 356 70.7347Z" fill="#5FD1AF"/>
</svg>
