<svg width="488" height="324" viewBox="0 0 488 324" fill="none" xmlns="http://www.w3.org/2000/svg">
<path d="M364.751 185.827C369.884 184.68 374.411 183.608 377.891 182.713C396.402 177.986 401.976 171.859 402.543 163.677C403.464 150.616 398.571 150.515 390.135 156.352C386.627 158.841 382.785 160.823 378.723 162.24C380.135 160.627 381.311 158.823 382.216 156.882C383.477 153.629 381.762 151.549 380.64 150.994C379.757 150.565 378.862 152.822 375.81 155.318C371.876 158.508 368.698 159.1 365.445 163.551C364.2 165.189 362.412 166.329 360.401 166.765C358.56 167.182 328.334 175.452 314.173 177.885C305.864 167.308 298.146 156.024 289.357 144.791C275.827 127.469 269.396 125.049 261.805 126.423L255.21 148.158C255.21 148.158 299.773 200.628 300.303 201.283C301.816 203.328 303.936 204.844 306.36 205.616C308.784 206.387 311.39 206.376 313.808 205.582C333 199.947 353.314 191.11 364.751 185.827Z" fill="#FFA8A7"/>
<path d="M260.04 122.048C275.852 122.742 280.543 131.605 288.664 141.438C296.785 151.271 314.464 176.498 314.464 176.498L357.627 167.471C357.627 167.471 355.849 179.864 361.41 187.327C361.41 187.327 338.51 198.876 324.64 204.183C307.112 210.915 305.965 209.377 302.799 206.478C299.634 203.578 261.187 160.071 261.187 160.071L260.04 122.048Z" fill="#37474F"/>
<path d="M81.6106 151.284C85.7088 138.854 90.2357 138.337 95.8219 146.935C98.1267 150.567 100.928 153.86 104.144 156.718C103.432 154.686 103.008 152.564 102.883 150.414C102.883 146.922 105.33 145.636 106.578 145.561C107.562 145.561 107.524 147.918 109.415 151.385C111.836 155.835 114.547 157.6 115.884 162.933C116.388 164.937 117.7 168.921 119.377 170.106C127.952 176.132 143.537 183.558 159.035 189.546C164.533 177.935 171.783 163.45 177.307 153.301C187.823 134.012 194.784 131.869 202.438 132.777L210.231 154.095C210.231 154.095 168.618 208.974 168.19 209.655C164.999 214.143 158.467 217.219 153.386 215.139C138.872 209.188 128.09 198.749 115.771 190.353C108.457 185.386 101.547 181.528 97.1333 178.225C81.8628 166.854 79.0382 159.075 81.6106 151.284Z" fill="#FFA8A7"/>
<path d="M194.191 253.313C205.603 261.621 257.341 270.836 281.35 253.313C281.35 253.313 280.795 186.268 278.904 150.78C278.816 149.166 278.715 147.603 278.551 146.09C278.551 145.586 278.425 145.081 278.374 144.577C278.097 142.45 277.676 140.344 277.113 138.274C277.025 137.933 276.912 137.593 276.811 137.252C276.571 136.483 276.332 135.74 276.016 134.996C275.865 134.605 275.701 134.214 275.525 133.836C275.348 133.458 275.197 133.117 274.995 132.777C274.979 132.709 274.949 132.644 274.907 132.588C274.73 132.247 274.528 131.907 274.339 131.579C274.15 131.252 273.91 130.861 273.658 130.508C273.406 130.155 273.192 129.84 272.952 129.537C272.713 129.234 272.397 128.856 272.095 128.528C271.821 128.211 271.531 127.908 271.225 127.621L270.594 127.028L269.964 126.511C269.699 126.272 269.396 126.057 269.106 125.843C268.145 125.169 267.133 124.571 266.08 124.053C265.79 123.914 265.487 123.763 265.184 123.65C265.111 123.621 265.039 123.587 264.97 123.549L263.886 123.145C263.279 122.907 262.66 122.701 262.032 122.527C261.393 122.351 260.725 122.187 260.027 122.036C259.245 122.036 258.388 122.036 257.505 122.036H255.614L253.571 122.111C244.593 122.502 231.705 123.952 221.365 125.276L219.348 125.553L217.57 125.767C210.47 126.7 205.212 127.469 204.405 127.596H204.279C201.959 128.188 199.803 128.743 198.062 129.26C193.321 130.659 196.801 129.461 195.805 134.05C192.741 147.515 196.31 196.493 196.31 196.493L194.191 253.313Z" fill="#455A64"/>
<path d="M214.833 85.2108C214.833 85.2108 218.528 102.545 220.003 105.382C220.993 107.136 222.618 108.444 224.543 109.038L224.278 96.847L214.833 85.2108Z" fill="#263238"/>
<path d="M219.411 60.3876C218.119 60.2419 216.812 60.3933 215.588 60.8303C214.364 61.2673 213.256 61.9783 212.349 62.909C209.323 65.9851 211.05 75.642 214.833 85.2108L221.781 86.0176L219.411 60.3876Z" fill="#263238"/>
<path d="M223.862 86.0176C222.475 86.8497 220.483 84.177 218.818 82.3742C217.154 80.5714 211.492 78.1256 208.73 84.0131C205.969 89.9006 211.252 97.9565 215.615 99.3432C223.181 101.739 224.366 96.8218 224.366 96.8218L224.795 124.809C232.765 139.244 259.737 131.857 249.624 122.288V115.19C253.448 115.462 257.287 115.462 261.111 115.19C266.71 114.32 269.005 110.45 270.707 104.386C273.431 94.6534 274.49 86.7993 272.158 67.6618C269.636 46.6964 245.223 46.4821 232.046 54.7649C218.869 63.0477 223.862 86.0176 223.862 86.0176Z" fill="#FFA8A7"/>
<path d="M220.672 48.9278C225.292 46.9548 230.118 45.5003 235.059 44.591C245.702 42.2839 256.496 40.1533 266.256 35.2492C267.382 34.5197 268.698 34.1382 270.039 34.1524C272.561 34.4928 273.721 37.5941 273.822 40.1659C273.91 42.5632 273.594 44.9582 272.889 47.2511C273.663 46.5098 274.698 46.1033 275.769 46.1198C276.841 46.1363 277.863 46.5745 278.614 47.3393C279.327 48.1435 279.848 49.0996 280.136 50.135C280.425 51.1705 280.473 52.258 280.278 53.3151C279.648 58.0805 276.003 62.0517 271.678 64.1697C267.353 66.2877 262.46 66.8045 257.656 66.9432C250.943 67.1445 244.227 66.6417 237.619 65.443C236.034 65.0445 234.391 64.9251 232.764 65.09C231.952 65.1808 231.182 65.4985 230.541 66.0069C229.901 66.5153 229.418 67.1937 229.145 67.9644C228.439 70.6119 227.695 88.6273 224.001 88.7029C223.307 88.7029 220.684 84.177 218.957 82.5633C216.813 80.521 214.644 65.09 214.266 62.2408C214.219 62.0189 214.119 61.8114 213.976 61.6357C211.555 58.2444 214.392 52.5334 217.38 50.6676C218.443 50.0244 219.542 49.4435 220.672 48.9278Z" fill="#263238"/>
<path d="M215.3 61.8752C214.868 62.3826 214.34 62.8 213.746 63.1034C213.153 63.4069 212.505 63.5905 211.841 63.6438C211.176 63.697 210.508 63.6189 209.873 63.4139C209.239 63.2089 208.651 62.8809 208.144 62.4488C207.636 62.0167 207.219 61.4889 206.915 60.8955C206.612 60.3021 206.428 59.6547 206.375 58.9904C206.322 58.326 206.4 57.6577 206.605 57.0235C206.81 56.3894 207.138 55.8018 207.57 55.2943L215.3 61.8752Z" fill="#263238"/>
<path d="M249.599 115.215C249.599 115.215 237.115 113.955 232.739 111.685C230.169 110.348 228.064 108.265 226.699 105.71C227.36 108.265 228.526 110.661 230.129 112.757C233.332 116.842 249.599 119.855 249.599 119.855V115.215Z" fill="#F28F8F"/>
<path d="M246.598 82.8911C246.58 83.3856 246.418 83.8642 246.13 84.267C245.843 84.6699 245.443 84.9793 244.981 85.1567C244.519 85.3341 244.015 85.3716 243.532 85.2646C243.048 85.1575 242.607 84.9107 242.263 84.5548C241.919 84.1989 241.688 83.7497 241.598 83.2632C241.507 82.7766 241.562 82.2743 241.755 81.8187C241.948 81.363 242.271 80.9744 242.684 80.701C243.097 80.4277 243.581 80.2817 244.076 80.2814C244.414 80.2812 244.75 80.3492 245.062 80.4814C245.373 80.6136 245.655 80.8073 245.891 81.0509C246.126 81.2944 246.31 81.5829 246.432 81.8991C246.553 82.2152 246.609 82.5526 246.598 82.8911Z" fill="#263238"/>
<path d="M243.949 73.4484L238.59 76.3985C238.208 75.6631 238.126 74.8083 238.361 74.0136C238.596 73.219 239.13 72.5464 239.851 72.1373C240.204 71.9451 240.593 71.8265 240.993 71.7886C241.394 71.7508 241.798 71.7944 242.181 71.917C242.564 72.0395 242.918 72.2384 243.222 72.5016C243.526 72.7648 243.773 73.0869 243.949 73.4484V73.4484Z" fill="#263238"/>
<path d="M248.476 100.188L254.189 102.331C254.064 102.714 253.863 103.069 253.599 103.373C253.334 103.677 253.011 103.925 252.648 104.101C252.286 104.278 251.892 104.38 251.489 104.4C251.086 104.421 250.683 104.36 250.305 104.222C249.537 103.917 248.917 103.327 248.576 102.574C248.235 101.822 248.199 100.966 248.476 100.188Z" fill="#F28F8F"/>
<path d="M268.929 75.5286L264.049 71.7465C264.277 71.4163 264.57 71.136 264.91 70.9228C265.25 70.7097 265.63 70.5681 266.027 70.5067C266.423 70.4453 266.828 70.4655 267.217 70.566C267.605 70.6664 267.969 70.845 268.286 71.0909C268.945 71.605 269.38 72.3536 269.5 73.1806C269.619 74.0075 269.415 74.8487 268.929 75.5286V75.5286Z" fill="#263238"/>
<path d="M267.429 82.1851C267.412 82.6797 267.249 83.1582 266.962 83.5611C266.674 83.9639 266.275 84.2733 265.812 84.4507C265.35 84.6281 264.846 84.6656 264.363 84.5586C263.88 84.4515 263.439 84.2047 263.095 83.8488C262.751 83.4929 262.519 83.0437 262.429 82.5572C262.338 82.0706 262.393 81.5683 262.587 81.1127C262.78 80.6571 263.103 80.2684 263.515 79.995C263.928 79.7217 264.412 79.5757 264.907 79.5754C265.246 79.5752 265.581 79.6433 265.893 79.7755C266.205 79.9076 266.487 80.1013 266.722 80.3449C266.958 80.5884 267.141 80.8769 267.263 81.1931C267.384 81.5092 267.441 81.8466 267.429 82.1851Z" fill="#263238"/>
<path d="M256.736 80.3949L257.568 95.4477L265.424 92.7624L256.736 80.3949Z" fill="#F28F8F"/>
<path d="M205.225 127.583C186.751 127.873 181.96 138.753 176.512 150.276C171.065 161.798 157.244 187.844 157.244 187.844L122.466 172.123C120.471 178.328 116.326 183.617 110.777 187.038C110.777 187.038 127.17 200.817 141.318 210.915C153.285 219.463 160.233 223.9 164.835 220.837C168.24 218.568 202.186 174.191 202.186 174.191C210.836 160.702 212.677 137.795 205.225 127.583Z" fill="#37474F"/>
<path d="M264.05 88.9929L262.07 87.9843L260.128 85.2108C260.442 85.0779 260.782 85.0212 261.122 85.0453C261.462 85.0694 261.791 85.1736 262.082 85.3494C262.965 85.9798 264.05 88.9929 264.05 88.9929Z" fill="#8850BF"/>
<path opacity="0.65" d="M264.05 88.9929L262.07 87.9843L260.128 85.2108C260.442 85.0779 260.782 85.0212 261.122 85.0453C261.462 85.0694 261.791 85.1736 262.082 85.3494C262.965 85.9798 264.05 88.9929 264.05 88.9929Z" fill="black"/>
<path d="M282.46 80.3319C282.337 82.3894 281.544 84.3503 280.204 85.9161C278.863 87.4818 277.047 88.5667 275.033 89.0055L271.918 89.535C270.554 89.786 269.168 89.8959 267.782 89.8628H267.366C267.139 89.8628 266.912 89.8628 266.698 89.8628C266.311 89.8253 265.928 89.7622 265.55 89.6736C265.352 89.6358 265.158 89.5809 264.97 89.5098C264.795 89.4601 264.626 89.3925 264.466 89.308C264.392 89.2827 264.324 89.2443 264.264 89.1946C264.179 89.1533 264.098 89.1026 264.024 89.0433C263.898 88.9368 263.791 88.8088 263.709 88.6651L262.637 86.4715C262.39 86.0341 262.018 85.6804 261.569 85.4558C261.12 85.2312 260.613 85.1459 260.115 85.2108L257.896 85.6016C257.347 85.7453 256.836 86.0086 256.4 86.3725C255.964 86.7364 255.613 87.1921 255.374 87.707C255.374 87.707 254.907 88.8668 254.315 90.2284C253.722 91.5899 250.04 93.3675 246.106 94.0105L242.991 94.5652C242.36 94.6585 241.718 94.6585 241.087 94.5652C240.732 94.5412 240.381 94.4777 240.04 94.3761L239.561 94.2374L239.259 94.1113C238.986 94.0066 238.724 93.8757 238.477 93.7205C237.632 93.3801 224.051 87.8582 222.185 83.408C219.209 76.2472 231.428 68.8721 235.829 67.4727C236.333 67.2679 236.857 67.1158 237.392 67.0189L269.472 61.5222C271.069 61.2037 272.727 61.5155 274.1 62.3921C274.919 62.909 277.946 64.6992 279.207 65.4556C279.319 65.5064 279.424 65.5699 279.522 65.6447C279.698 65.7456 279.875 65.8716 280.051 65.9851C280.111 66.0249 280.166 66.0715 280.215 66.1238C280.392 66.2624 280.556 66.4137 280.72 66.565C280.917 66.7644 281.099 66.9795 281.262 67.208C281.387 67.3651 281.497 67.534 281.59 67.7122C281.747 67.9607 281.882 68.2222 281.993 68.4939C282.094 68.7334 282.17 68.9729 282.246 69.2125C282.312 69.439 282.359 69.6711 282.384 69.9059C282.396 69.9599 282.396 70.0157 282.384 70.0698C282.403 70.3342 282.403 70.5996 282.384 70.864C282.527 74.0494 282.552 77.2053 282.46 80.3319Z" fill="#8850BF"/>
<g opacity="0.2">
<path opacity="0.2" d="M282.46 80.3319C282.337 82.3894 281.544 84.3503 280.204 85.9161C278.863 87.4818 277.047 88.5667 275.033 89.0055L271.918 89.535C270.554 89.786 269.168 89.8959 267.782 89.8628H267.366C267.139 89.8628 266.912 89.8628 266.698 89.8628C266.311 89.8253 265.928 89.7622 265.55 89.6736C265.352 89.6358 265.158 89.5809 264.97 89.5098C264.795 89.4601 264.626 89.3925 264.466 89.308C264.392 89.2827 264.324 89.2443 264.264 89.1946C264.179 89.1533 264.098 89.1026 264.024 89.0433C263.898 88.9368 263.791 88.8088 263.709 88.6651L262.637 86.4715C262.39 86.0341 262.018 85.6804 261.569 85.4558C261.12 85.2312 260.613 85.1459 260.115 85.2108L257.896 85.6016C257.347 85.7453 256.836 86.0086 256.4 86.3725C255.964 86.7364 255.613 87.1921 255.374 87.707C255.374 87.707 254.907 88.8668 254.315 90.2284C253.722 91.5899 250.04 93.3675 246.106 94.0105L242.991 94.5652C242.36 94.6585 241.718 94.6585 241.087 94.5652C240.732 94.5412 240.381 94.4777 240.04 94.3761L239.561 94.2374L239.259 94.1113C238.986 94.0066 238.724 93.8757 238.477 93.7205C237.632 93.3801 224.051 87.8582 222.185 83.408C219.209 76.2472 231.428 68.8721 235.829 67.4727C236.333 67.2679 236.857 67.1158 237.392 67.0189L269.472 61.5222C271.069 61.2037 272.727 61.5155 274.1 62.3921C274.919 62.909 277.946 64.6992 279.207 65.4556C279.319 65.5064 279.424 65.5699 279.522 65.6447C279.698 65.7456 279.875 65.8716 280.051 65.9851C280.111 66.0249 280.166 66.0715 280.215 66.1238C280.392 66.2624 280.556 66.4137 280.72 66.565C280.917 66.7644 281.099 66.9795 281.262 67.208C281.387 67.3651 281.497 67.534 281.59 67.7122C281.747 67.9607 281.882 68.2222 281.993 68.4939C282.094 68.7334 282.17 68.9729 282.246 69.2125C282.312 69.439 282.359 69.6711 282.384 69.9059C282.396 69.9599 282.396 70.0157 282.384 70.0698C282.403 70.3342 282.403 70.5996 282.384 70.864C282.527 74.0494 282.552 77.2053 282.46 80.3319Z" fill="black"/>
</g>
<path d="M279.206 65.4556C277.929 64.7981 276.47 64.5851 275.058 64.8505L242.978 70.511C241.054 70.9285 239.308 71.9345 237.981 73.3894C236.655 74.8442 235.814 76.6758 235.577 78.6299L226.371 73.3224C229.15 70.8751 232.344 68.9451 235.803 67.624V67.624C236.308 67.4191 236.832 67.2671 237.367 67.1701L269.472 61.5222C271.069 61.2037 272.727 61.5155 274.099 62.3921C274.894 62.909 277.946 64.6992 279.206 65.4556Z" fill="#8850BF"/>
<path opacity="0.35" d="M279.206 65.4556C277.929 64.7981 276.47 64.5851 275.058 64.8505L242.978 70.511C241.054 70.9285 239.308 71.9345 237.981 73.3894C236.655 74.8442 235.814 76.6758 235.577 78.6299L226.371 73.3224C229.15 70.8751 232.344 68.9451 235.803 67.624V67.624C236.308 67.4191 236.832 67.2671 237.367 67.1701L269.472 61.5222C271.069 61.2037 272.727 61.5155 274.099 62.3921C274.894 62.909 277.946 64.6992 279.206 65.4556Z" fill="white"/>
<path d="M282.46 70.8892C282.535 74.0326 282.535 77.1843 282.46 80.3445C282.337 82.3995 281.545 84.3578 280.204 85.9197C278.862 87.4816 277.046 88.5611 275.033 88.9929L271.918 89.5476C267.971 90.241 264.352 89.8123 263.709 88.6147L262.637 86.421C262.39 85.9837 262.018 85.63 261.569 85.4054C261.12 85.1808 260.613 85.0955 260.115 85.1603L257.883 85.5638C257.332 85.7025 256.818 85.9639 256.382 86.3284C255.945 86.6929 255.596 87.1512 255.361 87.6691L254.289 90.1905C253.697 91.6025 250.027 93.3171 246.093 93.9726L242.978 94.5274C242.08 94.7194 241.149 94.7078 240.255 94.4932C239.362 94.2786 238.527 93.8666 237.814 93.2873C237.1 92.7081 236.525 91.9764 236.132 91.146C235.738 90.3156 235.535 89.4076 235.539 88.4886C235.463 85.3494 235.463 82.1851 235.539 79.0459C235.663 76.9883 236.458 75.0279 237.801 73.464C239.144 71.9002 240.963 70.8188 242.978 70.3849L275.058 64.737C275.964 64.5467 276.901 64.5636 277.8 64.7865C278.698 65.0094 279.534 65.4326 280.246 66.0242C280.958 66.6159 281.527 67.3608 281.91 68.2033C282.294 69.0457 282.482 69.9639 282.46 70.8892V70.8892Z" fill="#8850BF"/>
<path opacity="0.5" d="M282.46 80.3319C282.337 82.3894 281.544 84.3503 280.204 85.9161C278.863 87.4818 277.047 88.5667 275.033 89.0055L271.918 89.535C270.554 89.786 269.168 89.8959 267.782 89.8628H267.366C267.139 89.8628 266.912 89.8628 266.698 89.8628C266.311 89.8253 265.928 89.7622 265.55 89.6737C265.352 89.6358 265.158 89.5809 264.97 89.5098C264.795 89.4601 264.626 89.3925 264.466 89.308C264.392 89.2827 264.324 89.2443 264.264 89.1946C264.179 89.1533 264.098 89.1026 264.024 89.0433C263.898 88.9368 263.791 88.8088 263.709 88.6651L262.637 86.4715C262.39 86.0341 262.018 85.6805 261.569 85.4558C261.12 85.2312 260.613 85.1459 260.115 85.2108L257.896 85.6016C257.347 85.7453 256.836 86.0086 256.4 86.3725C255.964 86.7364 255.613 87.1921 255.374 87.707C255.374 87.707 254.907 88.8668 254.315 90.2284C253.722 91.5899 250.04 93.3675 246.106 94.0105L242.991 94.5652C242.36 94.6585 241.718 94.6585 241.087 94.5652C240.732 94.5412 240.381 94.4777 240.04 94.3761L239.561 94.2374L239.259 94.1113C238.986 94.0066 238.724 93.8757 238.477 93.7205C237.582 93.169 236.843 92.3974 236.331 91.4793C235.818 90.5612 235.55 89.5272 235.551 88.476C235.476 85.3242 235.476 82.1725 235.551 79.0207C235.676 76.9631 236.47 75.0027 237.814 73.4388C239.157 71.875 240.975 70.7936 242.991 70.3597L275.071 64.6992C276.482 64.4339 277.942 64.6468 279.219 65.3043C279.331 65.3551 279.437 65.4186 279.534 65.4934C279.711 65.5943 279.887 65.7204 280.064 65.8338C280.124 65.8737 280.179 65.9202 280.228 65.9725C280.404 66.1112 280.568 66.2625 280.732 66.4137C280.93 66.6132 281.111 66.8282 281.275 67.0567C281.4 67.2139 281.51 67.3827 281.602 67.561C281.759 67.8094 281.894 68.0709 282.006 68.3426C282.107 68.5821 282.182 68.8217 282.258 69.0612C282.325 69.2878 282.371 69.5198 282.397 69.7546C282.408 69.8086 282.408 69.8645 282.397 69.9185C282.416 70.1829 282.416 70.4483 282.397 70.7127C282.531 73.999 282.552 77.2053 282.46 80.3319Z" fill="white"/>
<g opacity="0.7">
<path opacity="0.7" d="M282.46 70.8892C282.479 70.6248 282.479 70.3594 282.46 70.095C282.471 70.041 282.471 69.9851 282.46 69.9311C282.434 69.6963 282.388 69.4642 282.321 69.2377V69.2377C282.245 68.9982 282.17 68.7586 282.069 68.5191C281.957 68.2474 281.822 67.9859 281.665 67.7375C281.573 67.5592 281.463 67.3904 281.337 67.2332C281.174 67.0047 280.993 66.7897 280.795 66.5902C280.631 66.439 280.467 66.2877 280.291 66.149C280.246 66.1003 280.195 66.0579 280.14 66.0229L260.859 85.1982C261.238 85.25 261.6 85.3914 261.913 85.6106C262.227 85.8298 262.484 86.1206 262.662 86.4589L263.734 88.6525C263.816 88.7962 263.923 88.9243 264.049 89.0307C264.123 89.09 264.204 89.1407 264.289 89.182C264.349 89.2317 264.417 89.2701 264.491 89.2955C264.651 89.3799 264.821 89.4475 264.995 89.4972C265.183 89.5683 265.377 89.6232 265.575 89.6611C265.953 89.7496 266.336 89.8127 266.723 89.8502C266.937 89.8502 267.164 89.8502 267.391 89.8502H267.807C268.649 89.8685 269.492 89.8306 270.329 89.7367L282.561 77.5205C282.548 75.3143 282.535 73.1207 282.46 70.8892Z" fill="#8850BF"/>
<path opacity="0.7" d="M267.252 66.2372L239.221 94.25L239.523 94.3761L240.003 94.5147C240.343 94.6164 240.694 94.6798 241.049 94.7038C241.68 94.7972 242.322 94.7972 242.953 94.7038L244.983 94.3382L274.301 65.0396L267.252 66.2372Z" fill="#8850BF"/>
<path opacity="0.7" d="M247.304 69.742L235.513 81.5421C235.513 83.8996 235.513 86.2571 235.513 88.6273C235.528 89.7103 235.814 90.7723 236.346 91.716L260.683 67.3845L247.304 69.742Z" fill="#8850BF"/>
</g>
<path d="M228.111 82.1221C228.132 82.2925 228.113 82.4653 228.057 82.6275C228.001 82.7897 227.908 82.937 227.787 83.0584C227.666 83.1797 227.518 83.272 227.356 83.3282C227.194 83.3844 227.021 83.403 226.85 83.3828C226.485 83.2939 226.161 83.083 225.932 82.785C225.702 82.487 225.582 82.1197 225.589 81.7438C225.569 81.5734 225.588 81.4006 225.644 81.2384C225.7 81.0762 225.793 80.9289 225.914 80.8075C226.035 80.6862 226.183 80.5939 226.345 80.5377C226.507 80.4815 226.68 80.4629 226.85 80.4831C227.215 80.5741 227.538 80.7855 227.766 81.083C227.995 81.3806 228.117 81.7467 228.111 82.1221Z" fill="#263238"/>
<g opacity="0.5">
<path opacity="0.5" d="M276.281 65.4178C277.193 65.417 278.092 65.633 278.904 66.0481C278.997 66.0946 279.086 66.1494 279.169 66.212C279.334 66.3083 279.494 66.4135 279.648 66.5272H279.711H279.774L280.215 66.918C280.396 67.1012 280.56 67.2995 280.707 67.5105C280.81 67.635 280.898 67.7703 280.972 67.914V67.914C281.1 68.1287 281.214 68.352 281.312 68.5821C281.387 68.763 281.45 68.9482 281.501 69.1368V69.1368V69.2377C281.561 69.4218 281.599 69.6122 281.615 69.805V69.9941C281.633 70.2291 281.633 70.4651 281.615 70.7001C281.703 73.8267 281.703 77.0036 281.615 80.1175C281.539 82.0312 280.841 83.8681 279.629 85.3509C278.417 86.8337 276.755 87.8819 274.894 88.3373L271.779 88.8794C270.621 89.0799 269.449 89.1853 268.274 89.1946H267.732H267.341H266.735C266.37 89.1539 266.008 89.0908 265.651 89.0055C265.472 88.9695 265.295 88.9232 265.121 88.8668C265 88.8264 264.881 88.7758 264.768 88.7155H264.68L264.554 88.6399C264.496 88.588 264.445 88.5286 264.403 88.4634L263.331 86.2698C263.078 85.7332 262.679 85.2792 262.179 84.9601C261.679 84.6411 261.099 84.4701 260.506 84.467C260.342 84.4545 260.178 84.4545 260.014 84.467L257.782 84.8578C257.118 85.0212 256.5 85.333 255.973 85.7697C255.447 86.2064 255.027 86.7567 254.743 87.3792L253.672 89.9006C253.23 90.947 249.964 92.6111 245.967 93.3171L242.865 93.8592C242.498 93.9218 242.127 93.9555 241.755 93.96C241.545 93.9726 241.335 93.9726 241.125 93.96C240.81 93.9319 240.498 93.877 240.192 93.7961L239.813 93.6701L239.649 93.607H239.498C239.259 93.5191 239.031 93.4049 238.817 93.2667C238.017 92.7741 237.356 92.084 236.899 91.2628C236.442 90.4416 236.204 89.5167 236.207 88.5768C236.144 85.4629 236.144 82.2733 236.207 79.1594C236.338 77.2613 237.079 75.4564 238.32 74.0138C239.561 72.5711 241.235 71.568 243.092 71.154L275.184 65.5565C275.546 65.4916 275.913 65.4579 276.281 65.4556V65.4178ZM276.281 64.7874C275.859 64.7883 275.437 64.822 275.02 64.8883L242.941 70.5488C240.925 70.9827 239.107 72.0641 237.763 73.6279C236.42 75.1918 235.625 77.1522 235.501 79.2098C235.425 82.3742 235.425 85.5133 235.501 88.6651C235.5 89.7163 235.768 90.7503 236.28 91.6684C236.792 92.5865 237.531 93.3581 238.426 93.9096C238.674 94.0648 238.936 94.1957 239.208 94.3004L239.511 94.4265L239.99 94.5652C240.331 94.6668 240.682 94.7303 241.037 94.7543C241.263 94.7675 241.491 94.7675 241.717 94.7543C242.14 94.7591 242.562 94.7253 242.978 94.6534L246.093 94.0987C250.027 93.4179 253.659 91.7034 254.302 90.3166C254.945 88.9298 255.361 87.7952 255.361 87.7952C255.601 87.2803 255.951 86.8247 256.387 86.4608C256.823 86.0968 257.334 85.8336 257.883 85.6898L260.103 85.299C260.228 85.2866 260.355 85.2866 260.481 85.299C260.919 85.3039 261.348 85.4227 261.726 85.6437C262.104 85.8648 262.418 86.1805 262.637 86.5597L263.709 88.7533C263.791 88.897 263.898 89.0251 264.024 89.1315C264.098 89.1908 264.179 89.2416 264.264 89.2828C264.324 89.3325 264.392 89.371 264.466 89.3963C264.626 89.4807 264.795 89.5483 264.97 89.598C265.158 89.6692 265.352 89.724 265.55 89.7619C265.928 89.8504 266.311 89.9136 266.698 89.951C266.912 89.951 267.139 89.951 267.366 89.951H268.299C269.513 89.9439 270.724 89.83 271.918 89.6106L275.033 89.0811C277.059 88.6388 278.884 87.5427 280.226 85.9618C281.568 84.3808 282.353 82.4027 282.46 80.3319C282.535 77.1801 282.535 74.0326 282.46 70.8892C282.479 70.6248 282.479 70.3594 282.46 70.095C282.471 70.041 282.471 69.9851 282.46 69.9311C282.434 69.6963 282.388 69.4642 282.321 69.2377V69.2377C282.245 68.9982 282.17 68.7586 282.069 68.5191C281.957 68.2474 281.822 67.9859 281.665 67.7375C281.573 67.5592 281.463 67.3904 281.338 67.2332C281.174 67.0047 280.993 66.7897 280.795 66.5902C280.631 66.4389 280.467 66.2877 280.291 66.149C280.242 66.0967 280.187 66.0502 280.127 66.0103C279.95 65.8968 279.774 65.7708 279.597 65.6699C279.5 65.5951 279.394 65.5316 279.282 65.4808C278.378 65.0128 277.375 64.7706 276.357 64.7748L276.281 64.7874Z" fill="black"/>
</g>
<path d="M235.539 88.6273L235.375 81.8321C235.375 80.6975 235.286 79.588 235.375 78.4156C235.51 77.2563 235.87 76.1344 236.434 75.1126C237.543 73.0425 239.36 71.4406 241.553 70.5993C242.654 70.2629 243.78 70.0142 244.92 69.8554L248.262 69.2503L261.641 66.9684C266.105 66.2288 270.577 65.527 275.058 64.8631C270.619 65.7708 266.176 66.6449 261.729 67.4853L248.413 69.9059L245.072 70.4732C243.967 70.6159 242.875 70.8435 241.806 71.154C239.736 71.9487 238.007 73.437 236.913 75.3647C236.359 76.3198 235.995 77.3729 235.841 78.466C235.715 79.5502 235.778 80.7101 235.74 81.8321L235.539 88.6273Z" fill="white"/>
<g opacity="0.3">
<path opacity="0.3" d="M462.906 34.1397V197.35C460.107 214.432 451.318 231.212 436.426 246.618C431.054 252.143 425.261 257.243 419.1 261.873C413.081 266.318 406.817 270.422 400.337 274.164C375.647 288.461 346.404 298.521 315.334 304.421C310.391 305.371 305.397 306.211 300.353 306.943V143.052C335.282 137.404 368.194 127.003 395.759 111.837C429.97 92.9262 450.839 69.5906 458.405 45.1835C459.84 41.5764 461.008 37.8682 461.898 34.0893C461.937 33.9838 462.009 33.8935 462.103 33.8316C462.197 33.7697 462.308 33.7393 462.421 33.745C462.533 33.7506 462.641 33.7919 462.728 33.8629C462.815 33.9339 462.878 34.0309 462.906 34.1397V34.1397Z" fill="#8850BF"/>
</g>
<path d="M299.635 307.724V142.459L300.202 142.371C335.938 136.597 368.85 125.83 395.381 111.232C428.305 93.1027 449.855 70.221 457.673 45.07V44.5027H457.9C459.244 41.053 460.348 37.5146 461.204 33.9128C461.318 33.6754 461.502 33.4794 461.733 33.3522C461.963 33.2251 462.227 33.1732 462.489 33.2037C462.75 33.2343 462.995 33.3459 463.19 33.5228C463.385 33.6996 463.519 33.933 463.575 34.1902V197.35C460.687 215.088 451.696 231.792 436.867 247.085C431.471 252.637 425.648 257.758 419.453 262.402C413.414 266.872 407.124 270.993 400.614 274.744C376.479 288.7 347.804 298.937 315.409 305.089C310.479 306.035 305.422 306.88 300.404 307.611L299.635 307.724ZM300.984 143.569V306.199C305.725 305.506 310.492 304.699 315.157 303.816C347.401 297.677 375.937 287.515 399.946 273.559C406.401 269.832 412.644 265.75 418.646 261.331C424.776 256.738 430.543 251.68 435.896 246.202C450.536 231.074 459.401 214.685 462.238 197.287V35.3626C461.372 38.7688 460.289 42.1164 458.997 45.3852C451.066 70.8892 429.301 94.0482 396.037 112.354C369.468 126.965 336.682 137.757 300.984 143.569Z" fill="#8850BF"/>
<path d="M338.208 266.247C337.85 266.247 337.507 266.105 337.254 265.852C337.001 265.599 336.859 265.256 336.859 264.898V168.505C336.87 168.217 336.972 167.939 337.151 167.712C337.33 167.486 337.577 167.322 337.855 167.244C345.837 165.101 353.201 162.819 360.364 160.248C360.571 160.167 360.795 160.14 361.015 160.168C361.235 160.197 361.445 160.281 361.625 160.411C361.804 160.536 361.95 160.702 362.051 160.895C362.152 161.088 362.205 161.303 362.205 161.521V257.914C362.201 258.19 362.113 258.459 361.953 258.684C361.793 258.909 361.569 259.08 361.309 259.175C354.059 261.772 346.631 264.079 338.612 266.235C338.478 266.255 338.343 266.259 338.208 266.247V266.247ZM339.557 169.539V263.133C346.543 261.23 353.088 259.187 359.468 256.918V163.387C353.075 165.618 346.568 167.673 339.557 169.539V169.539Z" fill="white"/>
<path d="M381.586 250.753C381.326 250.759 381.07 250.684 380.855 250.539C380.664 250.418 380.507 250.25 380.399 250.051C380.291 249.853 380.235 249.63 380.237 249.404V153.011C380.234 152.747 380.307 152.487 380.448 152.264C380.589 152.04 380.791 151.862 381.031 151.751C387.384 148.904 393.584 145.727 399.605 142.232C400.98 141.501 402.253 140.719 403.477 139.95C403.68 139.82 403.916 139.751 404.157 139.751C404.399 139.751 404.635 139.82 404.838 139.95C405.051 140.064 405.229 140.233 405.353 140.439C405.477 140.646 405.543 140.882 405.545 141.123V237.516C405.545 237.746 405.487 237.973 405.374 238.174C405.261 238.375 405.098 238.544 404.901 238.663C403.64 239.457 402.316 240.29 400.904 241.033C394.802 244.564 388.518 247.77 382.078 250.64C381.922 250.708 381.755 250.747 381.586 250.753ZM382.935 153.894V247.324C388.206 244.891 393.679 242.054 399.605 238.651C400.74 238.058 401.799 237.39 402.846 236.76V143.468C402.216 143.846 401.585 144.212 400.904 144.565C394.536 148.284 388.635 151.284 382.935 153.894V153.894Z" fill="white"/>
<path d="M424.875 224.241C424.679 224.243 424.484 224.2 424.308 224.115C424.068 224.004 423.867 223.825 423.728 223.601C423.589 223.377 423.519 223.118 423.526 222.854V126.499C423.527 126.301 423.572 126.106 423.657 125.927C423.742 125.748 423.865 125.591 424.018 125.465C427.985 122.187 431.773 118.698 435.367 115.014C439.397 110.937 443.083 106.535 446.388 101.852C446.551 101.615 446.786 101.437 447.058 101.344C447.33 101.25 447.625 101.246 447.9 101.332C448.175 101.418 448.415 101.589 448.585 101.821C448.755 102.053 448.847 102.333 448.846 102.621V199.014C448.845 199.293 448.761 199.564 448.607 199.796C445.228 204.593 441.467 209.108 437.359 213.298C433.682 217.047 429.81 220.598 425.758 223.938C425.508 224.139 425.196 224.246 424.875 224.241V224.241ZM426.224 127.167V219.992C429.503 217.181 432.592 214.306 435.417 211.407C439.324 207.424 442.908 203.137 446.135 198.586V106.756C443.404 110.297 440.456 113.665 437.308 116.842C433.793 120.463 430.089 123.897 426.212 127.129L426.224 127.167Z" fill="white"/>
<g opacity="0.3">
<path opacity="0.3" d="M316.645 282.964L371.485 181.68L415.342 238.651C415.342 238.651 396.856 265.1 316.645 282.964Z" fill="#8850BF"/>
</g>
<g opacity="0.3">
<path opacity="0.3" d="M214.783 289.053C164.71 286.381 116.01 274.492 77.6135 253.401C34.4627 229.637 12.509 198.623 11.7776 167.497V164.395L11.3489 59.4798C11.3489 51.9913 24.5388 73.2215 52.1669 94.9938C52.8226 95.5233 53.4278 96.0149 54.1466 96.5318C55.685 97.7169 57.2612 98.8767 58.9005 100.037C64.9395 104.313 71.2213 108.236 77.7144 111.786C116.01 132.827 164.483 144.703 214.367 147.414L214.783 289.053Z" fill="#8850BF"/>
</g>
<path d="M12.7864 59.6311C15.5772 62.0217 18.2019 64.5995 20.6423 67.3466C30.1738 77.6593 40.4581 87.2502 51.4103 96.0401C51.8895 96.431 52.3812 96.8092 52.8856 97.1874L53.4026 97.6034C54.878 98.738 56.4416 99.8979 58.207 101.146C64.2828 105.439 70.5979 109.383 77.1217 112.959C113.69 133.13 161.86 145.737 213.043 148.687L213.446 287.629C162.503 284.717 114.56 272.16 78.2944 252.203C37.0099 229.447 13.8709 199.38 13.1269 167.471V164.37L12.736 59.6311H12.7864ZM12.1559 57.9922C11.6389 57.9922 11.3867 58.4839 11.3867 59.5303L11.7776 164.421V167.522C12.509 198.649 34.4753 229.662 77.6135 253.426C115.96 274.543 164.71 286.431 214.783 289.104L214.367 147.414C164.495 144.703 116.01 132.827 77.7648 111.786C71.2717 108.236 64.9899 104.313 58.951 100.037C57.3117 98.8767 55.7355 97.7169 54.1971 96.5318C53.5287 96.0149 52.9361 95.5233 52.2173 94.9938C28.4478 76.2724 15.3462 57.9922 12.1559 57.9922Z" fill="#8850BF"/>
<path d="M166.361 268.933H166.185C165.769 268.933 125.203 263.058 85.7341 243.025C40.5153 220.08 22.7607 184.516 22.5841 184.15C22.4902 183.967 22.4426 183.764 22.4454 183.558V156.327C22.4427 156.05 22.5313 155.779 22.6976 155.558L52.3433 113.652C52.487 113.458 52.6789 113.304 52.9001 113.207C53.1212 113.11 53.364 113.072 53.6043 113.097C53.8427 113.121 54.0703 113.209 54.2633 113.351C54.4563 113.493 54.6076 113.684 54.7013 113.904L91.4842 199.632L88.2687 183.823C88.2186 183.565 88.2443 183.297 88.3427 183.054C88.4412 182.81 88.6082 182.6 88.8235 182.449L118.532 161.584C118.682 161.472 118.855 161.395 119.038 161.358C119.221 161.321 119.41 161.325 119.591 161.37C119.774 161.409 119.946 161.485 120.098 161.593C120.25 161.702 120.378 161.84 120.474 162L167.584 241.122C167.708 241.332 167.774 241.571 167.774 241.815V267.584C167.777 267.762 167.744 267.939 167.678 268.104C167.611 268.269 167.512 268.419 167.386 268.545C167.26 268.671 167.11 268.77 166.945 268.837C166.779 268.903 166.602 268.936 166.424 268.933H166.361ZM25.1313 183.205C26.8463 186.495 44.6387 219.122 86.9194 240.592C121.659 258.242 157.244 264.722 164.974 265.983V242.181L118.797 164.622L91.0555 184.15L96.6416 211.886C96.6739 212.195 96.5984 212.506 96.4277 212.766C96.257 213.026 96.0017 213.219 95.705 213.313C95.4083 213.406 95.0885 213.394 94.7996 213.279C94.5107 213.164 94.2705 212.952 94.1196 212.68L53.163 117.245L25.1439 156.781L25.1313 183.205Z" fill="white"/>
<path d="M165.844 189.105C164.998 189.1 164.153 189.016 163.322 188.853C155.189 187.264 148.581 178.364 148.581 169.022C148.498 166.765 148.915 164.517 149.802 162.44C150.689 160.363 152.025 158.508 153.714 157.008C155.097 155.856 156.723 155.031 158.469 154.594C160.216 154.158 162.039 154.121 163.802 154.486C171.922 156.075 178.53 164.975 178.53 174.317C178.615 176.574 178.199 178.822 177.312 180.9C176.424 182.977 175.088 184.832 173.398 186.332C171.284 188.114 168.61 189.096 165.844 189.105V189.105ZM161.292 157.008C159.15 156.989 157.069 157.726 155.416 159.088C154.038 160.338 152.952 161.876 152.235 163.593C151.518 165.31 151.188 167.163 151.267 169.022C151.267 177.141 156.904 184.844 163.877 186.205C165.249 186.502 166.669 186.486 168.034 186.159C169.398 185.831 170.671 185.201 171.758 184.314C173.136 183.064 174.222 181.526 174.939 179.809C175.656 178.092 175.987 176.239 175.907 174.38C175.907 166.261 170.283 158.558 163.297 157.197C162.636 157.069 161.965 157.002 161.292 156.995V157.008Z" fill="white"/>
<g opacity="0.3">
<path opacity="0.3" d="M21.2097 91.5394C21.2097 91.5394 33.5043 113.135 58.9257 122.527V110.324C34.5509 98.8011 21.2097 77.2305 21.2097 77.2305V91.5394Z" fill="#8850BF"/>
</g>
<g opacity="0.3">
<path opacity="0.3" d="M21.2097 113.652C21.2097 113.652 33.5043 135.248 58.9257 144.64V132.437C34.5509 120.914 21.2097 99.3432 21.2097 99.3432V113.652Z" fill="#8850BF"/>
</g>
<g opacity="0.3">
<path opacity="0.3" d="M21.2097 135.765C21.2097 135.765 33.5043 157.361 58.9257 166.753V154.549C34.5509 143.026 21.2097 121.456 21.2097 121.456V135.765Z" fill="#8850BF"/>
</g>
</svg>
