<svg width="449" height="470" viewBox="0 0 449 470" fill="none" xmlns="http://www.w3.org/2000/svg">
<path d="M397.49 199L398.21 200.2C399.024 201.545 400.203 202.63 401.61 203.33L402.87 203.95L401.67 204.67C400.326 205.479 399.24 206.655 398.54 208.06L397.92 209.32L397.2 208.12C396.39 206.773 395.21 205.686 393.8 204.99L392.55 204.37L393.74 203.65C395.09 202.842 396.177 201.662 396.87 200.25L397.49 199Z" fill="#E0E0E0"/>
<path d="M345.41 51L345.82 51.67C346.274 52.4346 346.941 53.0498 347.74 53.44L348.45 53.79L347.77 54.2C347.008 54.6565 346.393 55.3231 346 56.12L345.65 56.83L345.24 56.15C344.781 55.3898 344.115 54.7759 343.32 54.38L342.61 54.03L343.29 53.62C344.052 53.1676 344.667 52.5042 345.06 51.71L345.41 51Z" fill="#E0E0E0"/>
<path d="M377.75 91.8999L378.92 93.8499C380.239 96.0346 382.154 97.7971 384.44 98.9299L386.44 99.9299L384.44 101.11C382.252 102.419 380.487 104.332 379.36 106.62L378.36 108.62L377.19 106.62C375.875 104.436 373.964 102.673 371.68 101.54L369.68 100.54L371.63 99.3699C373.812 98.0549 375.571 96.1429 376.7 93.8599L377.75 91.8999Z" fill="#E0E0E0"/>
<path d="M46.1702 277.06L46.8902 278.26C47.6978 279.609 48.8786 280.697 50.2902 281.39L51.5402 282.01L50.3402 282.73C48.9953 283.543 47.9097 284.723 47.2102 286.13L46.5902 287.39L45.8702 286.19C45.064 284.843 43.8871 283.756 42.4802 283.06L41.2202 282.44L42.4202 281.72C43.7676 280.91 44.854 279.73 45.5502 278.32L46.1702 277.06Z" fill="#E0E0E0"/>
<path d="M184.24 27.2L184.96 28.4C185.77 29.7473 186.95 30.8337 188.36 31.53L189.61 32.15L188.41 32.8699C187.066 33.6808 185.983 34.861 185.29 36.27L184.67 37.52L183.94 36.32C183.133 34.9759 181.956 33.8927 180.55 33.2L179.29 32.58L180.49 31.85C181.837 31.0433 182.923 29.8666 183.62 28.4599L184.24 27.2Z" fill="#E0E0E0"/>
<path d="M420.42 98.1599L421.11 98.4299C421.886 98.7481 422.737 98.8316 423.56 98.6699L424.29 98.5299L424.01 99.2299C423.702 100.004 423.618 100.85 423.77 101.67L423.91 102.4L423.22 102.12C422.446 101.809 421.598 101.729 420.78 101.89L420 102L420.28 101.31C420.593 100.537 420.677 99.6894 420.52 98.8699L420.42 98.1599Z" fill="#EBEBEB"/>
<path d="M148.59 31.12L149.28 31.4C150.054 31.7134 150.901 31.7967 151.72 31.64L152.46 31.5L152.18 32.19C151.867 32.9668 151.784 33.8172 151.94 34.64L152.08 35.37L151.39 35.09C150.612 34.7817 149.763 34.6986 148.94 34.85L148.21 34.99L148.49 34.3C148.799 33.5221 148.882 32.673 148.73 31.85L148.59 31.12Z" fill="#EBEBEB"/>
<path d="M124 357.88L124.69 358.16C125.468 358.468 126.317 358.551 127.14 358.4L127.87 358.26L127.59 358.95C127.281 359.728 127.198 360.577 127.35 361.4L127.49 362.13L126.8 361.85C126.023 361.537 125.173 361.453 124.35 361.61L123.62 361.75L123.9 361.06C124.208 360.282 124.292 359.433 124.14 358.61L124 357.88Z" fill="#EBEBEB"/>
<path d="M42.6303 84L43.3203 84.28C44.097 84.5931 44.9475 84.6764 45.7703 84.52L46.5003 84.38L46.2203 85.07C45.913 85.859 45.8367 86.7192 46.0003 87.55L46.1403 88.28L45.4303 88C44.6589 87.6934 43.8167 87.6102 43.0003 87.76L42.2603 87.9L42.5403 87.21C42.8537 86.4368 42.937 85.5895 42.7803 84.77L42.6303 84Z" fill="#EBEBEB"/>
<path d="M422.36 148.77L422.7 148.91C423.087 149.069 423.511 149.11 423.92 149.03L424.29 148.96L424.15 149.31C423.996 149.697 423.955 150.12 424.03 150.53L424.1 150.9L423.76 150.76C423.371 150.601 422.943 150.559 422.53 150.64L422.17 150.71L422.31 150.36C422.46 149.972 422.501 149.55 422.43 149.14L422.36 148.77Z" fill="#EBEBEB"/>
<path d="M173.36 49.23L173.7 49.37C174.086 49.5287 174.51 49.5704 174.92 49.49L175.29 49.42L175.15 49.76C174.979 50.1495 174.927 50.5809 175 51L175.07 51.36L174.73 51.22C174.338 51.071 173.914 51.0295 173.5 51.1L173.14 51.17L173.28 50.83C173.429 50.4415 173.471 50.02 173.4 49.61L173.36 49.23Z" fill="#EBEBEB"/>
<path d="M166.3 473.44C185.68 460.5 190.41 436 190 414C189.93 410.31 190.4 406.44 188.68 403.18C186.96 399.92 182.85 397.66 179.48 399.18C176.7 400.42 175.48 403.59 173.85 406.18C171.714 409.668 168.635 412.483 164.97 414.3C162.58 415.48 159.63 416.18 157.3 414.87C154.11 413.07 153.8 408.68 153.88 405.01L154.33 384.55C154.41 380.89 154.48 377.15 153.38 373.66C152.28 370.17 149.78 366.9 146.27 365.87C142.76 364.84 138.36 366.79 137.56 370.36C137.4 371.871 137.34 373.391 137.38 374.91C137.26 376.43 136.51 378.1 135.04 378.51C133.57 378.92 132.09 377.85 131.04 376.76C127.27 373.01 124.74 368.21 122.39 363.44C120.04 358.67 117.75 353.78 114.39 349.7C111.03 345.62 106.22 342.35 100.92 341.97C95.6201 341.59 89.9201 344.75 88.4801 349.88C87.0401 355.01 90.0201 360.3 93.2701 364.53C98.1119 370.812 103.838 376.359 110.27 381C111.43 381.84 112.68 382.74 113.11 384.11C113.87 386.56 111.49 388.95 109.04 389.71C106.26 390.58 103.26 390.25 100.37 390.55C97.4801 390.85 94.3201 392.05 93.1801 394.73C91.6001 398.45 94.7101 402.42 97.7901 405.04C103.98 410.282 111.017 414.431 118.6 417.31C121.31 418.31 124.17 419.24 126.34 421.17C128.51 423.1 129.79 426.4 128.42 428.96C127.05 431.52 123.62 432.3 120.77 431.73C117.92 431.16 115.39 429.6 112.68 428.54C107.61 426.54 101.03 426.81 97.6801 431.11C95.4901 433.94 95.2401 437.92 96.2701 441.34C97.4687 444.721 99.3358 447.826 101.76 450.47C109.7 460.161 120.055 467.587 131.78 472C143.55 476.22 154.48 477.48 166.3 473.42" fill="#2D2D2D"/>
<path d="M164.78 473.86C161.66 462.69 153.13 436.4 148.05 424.03C146.757 420.95 145.49 417.903 144.25 414.89C142.99 411.89 141.75 408.89 140.35 406.09C137.643 400.655 134.638 395.374 131.35 390.27C128.25 385.37 125.13 380.84 122.18 376.62C119.23 372.4 116.38 368.52 113.65 365.1C109.352 359.666 104.631 354.58 99.5303 349.89C97.7303 348.23 96.2903 346.98 95.3103 346.15L94.1803 345.21C93.9203 345 93.7803 344.91 93.7803 344.91L94.1403 345.25L95.2303 346.25C96.2303 347.11 97.6103 348.38 99.3903 350.07C104.438 354.805 109.118 359.916 113.39 365.36C116.1 368.79 118.91 372.68 121.85 376.9C124.79 381.12 127.85 385.67 130.97 390.56C134.231 395.656 137.209 400.927 139.89 406.35C141.28 409.17 142.51 412.12 143.76 415.13C145.01 418.14 146.27 421.18 147.56 424.26C152.63 436.62 161.17 462.88 164.31 474.02" fill="#E0E0E0"/>
<path d="M140.22 406C140.379 405.49 140.499 404.968 140.58 404.44C140.78 403.44 141.03 401.96 141.31 400.14C141.88 396.5 142.51 391.45 143.18 385.88C143.85 380.31 144.56 375.28 145.18 371.66C145.5 369.85 145.78 368.39 145.98 367.38C146.114 366.862 146.201 366.333 146.24 365.8C146.038 366.295 145.881 366.807 145.77 367.33C145.5 368.33 145.17 369.78 144.77 371.59C144.02 375.2 143.25 380.23 142.58 385.81C141.91 391.39 141.32 396.33 140.88 400.08C140.65 401.83 140.46 403.28 140.32 404.4C140.232 404.928 140.199 405.465 140.22 406V406Z" fill="#E0E0E0"/>
<path d="M92.6602 396.53C92.8181 396.584 92.9833 396.614 93.1502 396.62L94.5602 396.76C95.7902 396.87 97.5602 397.04 99.7402 397.32C104.1 397.84 110.1 398.77 116.67 400.09C123.24 401.41 129.14 402.9 133.37 404.09C135.49 404.67 137.19 405.18 138.37 405.53L139.73 405.93C139.887 405.993 140.052 406.03 140.22 406.04C140.081 405.949 139.929 405.878 139.77 405.83L138.44 405.33C137.28 404.91 135.59 404.33 133.44 403.71C129.23 402.42 123.33 400.89 116.74 399.55C110.15 398.21 104.13 397.35 99.7402 396.93C97.5502 396.7 95.7402 396.59 94.5402 396.54H93.1202C92.968 396.515 92.8132 396.512 92.6602 396.53Z" fill="#E0E0E0"/>
<path d="M160.18 458.65C160.306 458.471 160.413 458.28 160.5 458.08C160.72 457.64 160.99 457.08 161.33 456.38C162.05 454.91 163.04 452.75 164.22 450.07C166.59 444.7 169.65 437.2 172.91 428.88C176.17 420.56 179.16 413.03 181.44 407.63C182.57 404.99 183.49 402.83 184.16 401.25C184.47 400.54 184.71 399.97 184.9 399.52C184.996 399.322 185.07 399.114 185.12 398.9C184.999 399.081 184.892 399.272 184.8 399.47L183.97 401.16C183.25 402.64 182.27 404.8 181.08 407.48C178.71 412.84 175.66 420.35 172.39 428.67C169.12 436.99 166.14 444.52 163.86 449.91L161.14 456.29L160.4 458C160.301 458.207 160.227 458.425 160.18 458.65V458.65Z" fill="#E0E0E0"/>
<path d="M97.1201 437.55C97.3227 437.651 97.5334 437.735 97.7501 437.8L99.5801 438.42L106.34 440.68C112.04 442.59 119.89 445.32 128.55 448.36C137.21 451.4 145.09 454.08 150.83 455.89C153.7 456.8 156.03 457.51 157.65 457.98L159.52 458.5C159.733 458.578 159.955 458.629 160.18 458.65C159.979 458.546 159.768 458.462 159.55 458.4L157.71 457.77L151 455.52C145.29 453.61 137.44 450.88 128.78 447.84C120.12 444.8 112.24 442.12 106.5 440.31C103.63 439.4 101.3 438.68 99.6901 438.22L97.8201 437.69C97.5932 437.616 97.3582 437.569 97.1201 437.55V437.55Z" fill="#E0E0E0"/>
<path d="M143.92 271.1C129.92 261.75 120.2 261.49 113.01 262.1C103.94 262.85 95.1802 265.7 88.0102 271.84C81.6202 277.35 77.2302 285.74 78.2802 294.12C79.3302 302.5 86.8802 310.12 95.2802 309.54C101.18 309.15 107.14 305.17 112.59 307.44C118.32 309.83 119.39 317.25 121.97 322.89C123.986 327.151 127.226 330.715 131.276 333.126C135.327 335.538 140.003 336.688 144.71 336.43C154.08 335.7 162.61 328.35 164.47 319.14C165.86 312.21 166.02 302.56 164.05 295.78C161.29 286.25 156.05 277.49 143.85 271.11" fill="#2D2D2D"/>
<path d="M173.58 432.05C175.64 434.94 179.58 433.94 181.41 432.15C183.24 430.36 183.98 427.78 184.66 425.32C186.22 419.7 187.79 413.8 186.53 408.11C186.226 406.38 185.451 404.767 184.29 403.45C183.701 402.805 182.954 402.325 182.122 402.058C181.291 401.791 180.404 401.747 179.55 401.93C177.55 402.47 176.34 404.44 175.46 406.31C172.872 411.822 171.547 417.841 171.58 423.93C171.58 426.76 171.96 429.73 173.58 432.05" fill="#8850BF"/>
<path d="M181.35 446.7C184.748 445.07 188.577 444.569 192.28 445.27C194.303 445.427 196.215 446.258 197.71 447.63C199.08 449.11 199.36 451.73 197.82 453.03C196.826 453.716 195.623 454.035 194.42 453.93C191.53 453.93 188.31 453.44 186.02 455.21C184.71 456.21 183.85 457.87 182.27 458.37C181.483 458.561 180.656 458.49 179.912 458.169C179.169 457.848 178.55 457.294 178.15 456.59C177.387 455.145 177.208 453.463 177.65 451.89C177.825 450.798 178.25 449.761 178.892 448.861C179.533 447.961 180.375 447.221 181.35 446.7Z" fill="#8850BF"/>
<path d="M168 436.28C169.034 434.904 169.716 433.297 169.986 431.598C170.256 429.898 170.106 428.158 169.55 426.53C168.406 423.275 166.385 420.399 163.71 418.22C160.672 415.56 157.142 413.521 153.32 412.22C151.841 411.641 150.256 411.385 148.67 411.47C147.878 411.525 147.112 411.773 146.438 412.191C145.763 412.609 145.201 413.185 144.8 413.87C143.73 415.95 144.8 418.45 145.94 420.49C147.964 424.086 150.264 427.52 152.82 430.76C154.88 433.36 157.24 435.92 160.34 437.08C163.44 438.24 166.67 438.08 168.29 435.9" fill="#8850BF"/>
<path d="M173.87 475.92C173.965 475.482 174.022 475.037 174.04 474.59C174.12 473.59 174.23 472.42 174.35 470.98C174.47 469.54 174.71 467.66 175.11 465.69C175.565 463.557 176.191 461.463 176.98 459.43C177.75 457.398 178.804 455.486 180.11 453.75C181.171 452.333 182.538 451.174 184.11 450.36C185.172 449.821 186.313 449.453 187.49 449.27C187.932 449.24 188.37 449.173 188.8 449.07C188.355 449.02 187.905 449.02 187.46 449.07C186.236 449.172 185.04 449.493 183.93 450.02C182.284 450.824 180.844 451.994 179.72 453.44C178.355 455.201 177.26 457.156 176.47 459.24C175.668 461.302 175.049 463.43 174.62 465.6C174.302 467.385 174.094 469.189 174 471C173.9 472.53 173.87 473.77 173.86 474.63C173.812 475.059 173.816 475.492 173.87 475.92V475.92Z" fill="#263238"/>
<path d="M174.09 473.14C174.116 472.938 174.116 472.733 174.09 472.53C174.09 472.06 174.09 471.53 174.09 470.77C174.09 469.25 174.09 467.05 174.09 464.33C174.17 458.89 174.57 451.38 175.39 443.12C176.21 434.86 177.39 427.43 178.39 422.12C178.64 420.78 178.89 419.58 179.12 418.52C179.35 417.46 179.54 416.52 179.73 415.82C179.92 415.12 180.02 414.56 180.12 414.11C180.183 413.913 180.217 413.707 180.22 413.5C180.13 413.684 180.063 413.879 180.02 414.08C179.89 414.52 179.72 415.08 179.52 415.77C179.32 416.46 179.08 417.4 178.83 418.45C178.58 419.5 178.28 420.71 178.01 422.04C176.573 428.998 175.511 436.028 174.83 443.1C174.01 451.37 173.67 458.9 173.69 464.36C173.69 467.08 173.76 469.29 173.84 470.81C173.89 471.52 173.94 472.1 173.97 472.56C173.985 472.758 174.025 472.953 174.09 473.14Z" fill="#263238"/>
<path d="M174 458.62C174.053 458.011 174.053 457.399 174 456.79C173.888 455.114 173.687 453.445 173.4 451.79C172.97 449.357 172.406 446.95 171.71 444.58C170.879 441.667 169.843 438.817 168.61 436.05C166.464 430.967 163.415 426.315 159.61 422.32C158.944 421.64 158.24 420.999 157.5 420.4C157.18 420.13 156.89 419.86 156.6 419.65L155.78 419.1C155.291 418.725 154.773 418.391 154.23 418.1C156.024 419.476 157.727 420.966 159.33 422.56C163.019 426.588 165.992 431.219 168.12 436.25C169.347 438.991 170.389 441.81 171.24 444.69C172.06 447.34 172.61 449.78 173.03 451.83C173.45 453.88 173.66 455.57 173.8 456.74C173.823 457.371 173.89 457.999 174 458.62V458.62Z" fill="#263238"/>
<path d="M414.33 301.76C414.33 292.76 416.82 283.76 416.68 278.25C416.54 272.74 413.04 266.92 407.61 265.94C405.7 265.6 403.71 265.86 401.83 265.39C399.61 264.84 397.77 263.32 395.98 261.89C391.29 258.11 386.23 254.48 380.38 253.03C374.53 251.58 367.67 252.74 363.74 257.32C360.91 260.62 359.99 265.1 359.35 269.4C359.02 271.63 358.75 273.99 359.68 276.04C360.333 277.384 361.44 278.453 362.805 279.061C364.169 279.668 365.705 279.774 367.14 279.36" fill="#263238"/>
<path d="M408.15 358.81L374.25 357.25C374.06 353.66 375.89 331.4 375.89 331.4C375.89 331.4 363.08 329.4 362.89 316.59C362.7 303.78 365 274.36 365 274.36C372.284 271.239 380.268 270.116 388.131 271.107C395.993 272.099 403.449 275.168 409.73 280L411.63 281.47L408.15 358.81Z" fill="#B78876"/>
<path d="M375.87 331.21C381.784 331.323 387.598 329.673 392.57 326.47C392.57 326.47 388.63 335.69 375.84 334.53L375.87 331.21Z" fill="#AA6550"/>
<path d="M410.05 294.72C410.27 294.62 418.85 292.11 418.57 300.87C418.29 309.63 409.57 307.55 409.57 307.29C409.57 307.03 410.05 294.72 410.05 294.72Z" fill="#B78876"/>
<path d="M412.33 304.06C412.33 304.06 412.48 304.17 412.73 304.3C413.09 304.461 413.496 304.483 413.87 304.36C414.81 304.05 415.63 302.6 415.73 301.03C415.777 300.279 415.654 299.527 415.37 298.83C415.296 298.554 415.156 298.3 414.963 298.089C414.77 297.879 414.529 297.718 414.26 297.62C414.087 297.568 413.901 297.578 413.734 297.649C413.568 297.721 413.432 297.848 413.35 298.01C413.22 298.25 413.27 298.43 413.22 298.44C413.17 298.45 413.04 298.29 413.12 297.93C413.177 297.715 413.304 297.525 413.48 297.39C413.732 297.218 414.039 297.147 414.34 297.19C414.697 297.274 415.027 297.448 415.298 297.694C415.569 297.941 415.773 298.253 415.89 298.6C416.233 299.373 416.388 300.216 416.34 301.06C416.22 302.83 415.27 304.45 413.99 304.77C413.753 304.83 413.505 304.837 413.265 304.791C413.025 304.744 412.798 304.645 412.6 304.5C412.34 304.27 412.3 304.08 412.33 304.06Z" fill="#AA6550"/>
<path d="M367.81 294.44C367.805 294.917 367.985 295.377 368.314 295.723C368.643 296.068 369.094 296.272 369.57 296.29C369.803 296.308 370.037 296.279 370.259 296.205C370.48 296.131 370.685 296.014 370.861 295.861C371.037 295.707 371.18 295.52 371.283 295.311C371.386 295.101 371.446 294.873 371.46 294.64C371.466 294.161 371.283 293.7 370.953 293.354C370.622 293.008 370.169 292.806 369.69 292.79C369.458 292.772 369.224 292.801 369.003 292.875C368.782 292.949 368.578 293.066 368.403 293.22C368.228 293.373 368.085 293.56 367.984 293.77C367.882 293.98 367.823 294.207 367.81 294.44V294.44Z" fill="#263238"/>
<path d="M367.41 292.38C367.63 292.62 369.02 291.6 370.99 291.6C372.96 291.6 374.4 292.6 374.61 292.35C374.82 292.1 374.49 291.81 373.86 291.35C373.01 290.757 371.997 290.442 370.96 290.45C369.937 290.448 368.939 290.77 368.11 291.37C367.5 291.85 367.29 292.28 367.41 292.38Z" fill="#263238"/>
<path d="M387.09 294.9C387.082 295.378 387.262 295.839 387.591 296.185C387.921 296.532 388.373 296.734 388.85 296.75C389.083 296.768 389.317 296.739 389.539 296.665C389.76 296.591 389.965 296.474 390.141 296.321C390.317 296.167 390.46 295.98 390.563 295.771C390.666 295.561 390.726 295.333 390.74 295.1C390.743 294.624 390.561 294.165 390.233 293.82C389.905 293.475 389.456 293.271 388.98 293.25C388.747 293.232 388.513 293.261 388.292 293.335C388.07 293.409 387.865 293.526 387.69 293.679C387.514 293.833 387.37 294.02 387.267 294.229C387.164 294.439 387.104 294.667 387.09 294.9V294.9Z" fill="#263238"/>
<path d="M386.76 292.75C386.99 292.99 388.38 291.96 390.34 291.97C392.3 291.98 393.76 292.97 393.97 292.72C394.18 292.47 393.85 292.18 393.21 291.72C392.359 291.13 391.346 290.819 390.31 290.83C389.287 290.829 388.29 291.151 387.46 291.75C386.86 292.21 386.65 292.64 386.76 292.75Z" fill="#263238"/>
<path d="M379.62 307.35C378.581 307.031 377.506 306.839 376.42 306.78C375.91 306.72 375.42 306.62 375.35 306.28C375.317 305.761 375.435 305.243 375.69 304.79C376.16 303.57 376.69 302.3 377.18 300.96C379.24 295.51 380.74 291.03 380.52 290.96C380.3 290.89 378.44 295.23 376.38 300.68C375.88 302.02 375.38 303.31 374.95 304.53C374.635 305.147 374.543 305.853 374.69 306.53C374.766 306.705 374.88 306.861 375.024 306.988C375.167 307.114 375.337 307.207 375.52 307.26C375.798 307.334 376.083 307.375 376.37 307.38C377.45 307.516 378.543 307.505 379.62 307.35V307.35Z" fill="#263238"/>
<path d="M385.41 308.72C385.09 308.72 385.09 310.83 383.26 312.35C381.43 313.87 379.15 313.63 379.14 313.93C379.14 314.07 379.64 314.35 380.6 314.37C381.853 314.393 383.073 313.967 384.04 313.17C384.962 312.422 385.561 311.348 385.71 310.17C385.79 309.23 385.56 308.7 385.41 308.72Z" fill="#263238"/>
<path d="M386.25 285C386.45 285.53 388.41 285.28 390.72 285.56C393.03 285.84 394.9 286.46 395.21 285.98C395.34 285.75 395.02 285.25 394.27 284.73C393.269 284.082 392.127 283.684 390.94 283.57C389.758 283.43 388.558 283.57 387.44 283.98C386.6 284.36 386.17 284.78 386.25 285Z" fill="#263238"/>
<path d="M368.13 286.69C368.48 287.13 369.83 286.69 371.46 286.69C373.09 286.69 374.46 286.99 374.79 286.52C374.93 286.29 374.72 285.84 374.11 285.42C373.299 284.913 372.355 284.659 371.399 284.689C370.443 284.72 369.518 285.033 368.74 285.59C368.17 286 368 286.47 368.13 286.69Z" fill="#263238"/>
<path d="M412.31 280.86C412.14 284.59 412.97 288.75 412.31 292.42C412.21 292.97 410.77 294.42 410.65 295C409.89 298.25 408.55 299.64 406.65 296.29C405.91 295 405.43 291.42 405.14 289.97C404.36 286.03 403.583 282.087 402.81 278.14C399.803 279.699 396.457 280.492 393.07 280.45C389.7 280.25 386.28 278.54 384.74 275.54C383.937 276.865 382.846 277.992 381.549 278.838C380.251 279.685 378.78 280.229 377.244 280.431C375.708 280.632 374.146 280.486 372.675 280.003C371.203 279.52 369.858 278.713 368.74 277.64C368.114 278.521 367.179 279.135 366.122 279.361C365.065 279.587 363.962 279.408 363.03 278.86C362.133 278.257 361.45 277.386 361.076 276.371C360.703 275.357 360.659 274.251 360.95 273.21C361.83 270.08 365.18 268.38 368.3 267.47C380.48 263.88 393.96 266.69 404.91 273.12C406.545 274.002 408.038 275.125 409.34 276.45C410.59 277.82 412.34 279.45 412.34 281.28" fill="#263238"/>
<path d="M362.56 258.48C363.287 257.774 364.074 257.132 364.91 256.56C367.281 255.14 370.034 254.487 372.79 254.69C379.7 255.14 389.32 258.81 396.9 266.4C397.959 267.455 398.961 268.567 399.9 269.73L400.13 270L400.45 269.85C402.443 268.958 404.68 268.769 406.795 269.314C408.91 269.859 410.777 271.105 412.09 272.85C414.4 276.19 414.42 280.16 413.91 283.11C413.442 285.486 412.742 287.81 411.82 290.05C411.462 290.863 411.158 291.698 410.91 292.55C411.397 291.804 411.806 291.01 412.13 290.18C413.193 287.946 413.995 285.597 414.52 283.18C414.864 281.479 414.952 279.737 414.78 278.01C414.587 275.988 413.9 274.044 412.78 272.35C411.367 270.399 409.32 268.999 406.99 268.388C404.659 267.777 402.189 267.993 400 269L400.56 269.13C399.604 267.94 398.586 266.802 397.51 265.72C389.77 258 380 254.34 372.81 254C369.942 253.854 367.103 254.632 364.71 256.22C364.078 256.66 363.506 257.181 363.01 257.77C362.813 257.973 362.66 258.215 362.56 258.48V258.48Z" fill="#455A64"/>
<path d="M369.17 273.17C369.517 271.373 370.239 269.669 371.29 268.17C372.489 266.599 374.045 265.338 375.83 264.49C378.029 263.515 380.429 263.083 382.83 263.23C388.04 263.51 392.37 265.79 395.37 267.41C396.953 268.407 398.596 269.306 400.29 270.1C400.29 270.05 399.91 269.7 399.12 269.1C398.33 268.5 397.18 267.73 395.7 266.81C392.76 265.04 388.35 262.57 382.88 262.28C380.314 262.11 377.747 262.596 375.42 263.69C373.534 264.622 371.917 266.02 370.72 267.75C369.921 268.91 369.385 270.231 369.15 271.62C369.039 272.131 369.046 272.662 369.17 273.17Z" fill="#455A64"/>
<path d="M400.79 304.52H370.67C368.116 304.52 365.667 303.505 363.861 301.699C362.055 299.893 361.04 297.444 361.04 294.89C361.043 292.338 362.058 289.891 363.864 288.087C365.67 286.283 368.118 285.27 370.67 285.27H400.79C403.341 285.27 405.788 286.284 407.592 288.088C409.397 289.892 410.41 292.339 410.41 294.89C410.41 297.442 409.397 299.89 407.593 301.696C405.789 303.502 403.342 304.517 400.79 304.52Z" fill="#8850BF"/>
<g opacity="0.3">
<path opacity="0.3" d="M400.79 304.52H370.67C368.116 304.52 365.667 303.505 363.861 301.699C362.055 299.893 361.04 297.444 361.04 294.89C361.043 292.338 362.058 289.891 363.864 288.087C365.67 286.283 368.118 285.27 370.67 285.27H400.79C403.341 285.27 405.788 286.284 407.592 288.088C409.397 289.892 410.41 292.339 410.41 294.89C410.41 297.442 409.397 299.89 407.593 301.696C405.789 303.502 403.342 304.517 400.79 304.52Z" fill="black"/>
</g>
<path d="M388.08 304.52H358C355.448 304.517 353.001 303.502 351.197 301.696C349.394 299.89 348.38 297.442 348.38 294.89C348.38 292.339 349.394 289.892 351.198 288.088C353.002 286.284 355.449 285.27 358 285.27H388.12C390.673 285.27 393.121 286.283 394.926 288.087C396.732 289.891 397.748 292.338 397.75 294.89V294.89C397.75 296.158 397.5 297.414 397.014 298.585C396.527 299.756 395.814 300.819 394.916 301.714C394.017 302.608 392.951 303.317 391.778 303.798C390.605 304.28 389.348 304.525 388.08 304.52Z" fill="#8850BF"/>
<path d="M387.76 303.61H358.28C355.997 303.61 353.807 302.703 352.192 301.088C350.578 299.474 349.67 297.284 349.67 295C349.67 292.716 350.578 290.526 352.192 288.912C353.807 287.297 355.997 286.39 358.28 286.39H387.76C390.044 286.39 392.234 287.297 393.849 288.912C395.463 290.526 396.37 292.716 396.37 295V295C396.37 297.284 395.463 299.474 393.849 301.088C392.234 302.703 390.044 303.61 387.76 303.61V303.61Z" fill="#263238"/>
<path d="M371.67 286.39L357.7 303.59H361.65L375.84 286.39H371.67Z" fill="#E0E0E0"/>
<path d="M375.08 291.9C373.707 293.914 372.193 295.829 370.55 297.63C369.034 299.539 367.386 301.34 365.62 303.02C368.503 299.091 371.664 295.375 375.08 291.9V291.9Z" fill="#E0E0E0"/>
<path d="M377.35 288.88C377.46 288.97 377.26 289.41 376.9 289.88C376.54 290.35 376.15 290.62 376.04 290.53C375.93 290.44 376.13 290 376.49 289.53C376.85 289.06 377.23 288.79 377.35 288.88Z" fill="#E0E0E0"/>
<path d="M367.1 288C366.452 289.365 365.599 290.623 364.57 291.73C363.674 292.945 362.602 294.02 361.39 294.92C362.22 293.673 363.149 292.496 364.17 291.4C365.054 290.19 366.034 289.053 367.1 288V288Z" fill="#E0E0E0"/>
<path d="M454.35 425.54L460.35 474.85L439.73 474.76L430.89 424.77L454.35 425.54Z" fill="#B78876"/>
<path d="M310.05 416.08L345.1 397.55L349.56 474.63L439.73 474.77L433.11 427.08L465.32 426.25C465.32 426.25 459.32 388.46 456.89 379.99C454.46 371.52 445 361.92 437.7 358C430.4 354.08 408.79 344.65 408.79 344.65C396.53 349.8 385.21 349.65 374.98 343.28C369.019 344.121 363.15 345.521 357.45 347.46C349.99 350.06 342.36 353.19 339.16 355.07C335.96 356.95 302 378.5 302 378.5L310.05 416.08Z" fill="#8850BF"/>
<path d="M431.25 386.84C431.289 387 431.309 387.165 431.31 387.33C431.31 387.71 431.37 388.17 431.4 388.73C431.46 390.03 431.54 391.73 431.64 393.89C431.83 398.32 432.09 404.3 432.37 410.89C432.65 417.48 432.98 423.55 433.26 427.89C433.4 430 433.51 431.74 433.6 433.04C433.6 433.6 433.66 434.04 433.68 434.44C433.704 434.602 433.704 434.768 433.68 434.93C433.624 434.776 433.59 434.614 433.58 434.45C433.53 434.07 433.48 433.61 433.4 433.06C433.25 431.84 433.09 430.06 432.9 427.91C432.53 423.57 432.16 417.55 431.9 410.91C431.64 404.27 431.42 398.24 431.32 393.91C431.32 391.79 431.32 390.05 431.25 388.75C431.25 388.19 431.25 387.75 431.25 387.34C431.226 387.174 431.226 387.006 431.25 386.84V386.84Z" fill="#263238"/>
<path d="M346.86 423.74C346.771 423.272 346.734 422.796 346.75 422.32C346.7 421.32 346.65 420 346.58 418.43C346.43 415.05 346.22 410.57 345.99 405.61C345.76 400.65 345.59 396.06 345.55 392.78C345.55 391.13 345.55 389.78 345.55 388.88C345.53 388.401 345.56 387.922 345.64 387.45C345.722 387.922 345.759 388.401 345.75 388.88C345.75 389.88 345.85 391.2 345.91 392.77C346.07 396.15 346.28 400.63 346.51 405.59C346.74 410.55 346.91 415.13 346.95 418.42C346.95 420.06 346.95 421.42 346.95 422.32C346.957 422.795 346.927 423.27 346.86 423.74V423.74Z" fill="#263238"/>
<g opacity="0.3">
<path opacity="0.3" d="M431.43 390.74C434.317 399.313 437.203 407.877 440.09 416.43C440.9 418.85 441.72 421.43 441.03 423.9C440.34 426.37 436.87 427.13 433.11 427.08C433.11 427.08 432.97 423.6 432.83 421.46C432.163 411.72 431.517 401.987 430.89 392.26" fill="black"/>
</g>
<path d="M451.36 404.51C451.48 404.289 451.614 404.075 451.76 403.87L452.89 402.18C453.89 400.74 455.24 398.73 456.89 396.35L456.94 396.67L448.92 391L449.28 390.94L449.23 391.01L449.13 391.15L448.93 391.42L448.54 391.97C448.28 392.33 448.03 392.69 447.77 393.04C447.27 393.75 446.77 394.44 446.29 395.11L443.56 398.88L443.5 398.57C445.86 400.28 447.81 401.74 449.2 402.78L450.82 404.01C451.024 404.156 451.218 404.317 451.4 404.49C451.196 404.402 451.005 404.287 450.83 404.15L449.19 403.04C447.76 402.04 445.7 400.67 443.24 398.94L443.06 398.81L443.19 398.62L445.88 394.82L447.35 392.74C447.61 392.39 447.86 392.03 448.12 391.67L448.51 391.12L448.7 390.85L448.8 390.71L448.85 390.64L449.21 390.58L457.21 396.35L457.4 396.48L457.26 396.66C455.5 399.1 454 401.1 452.97 402.48L451.77 404.05C451.51 404.36 451.37 404.54 451.36 404.51Z" fill="#FAFAFA"/>
<path d="M417.26 384.6C417.374 384.375 417.508 384.161 417.66 383.96C417.96 383.5 418.34 382.96 418.79 382.27C419.79 380.84 421.14 378.82 422.79 376.44L422.85 376.76L414.8 371.05L415.16 370.99L415.11 371.05L415.01 371.19L414.82 371.47L414.43 372.01L413.66 373.08C413.15 373.79 412.66 374.48 412.17 375.15L409.41 379L409.36 378.68C411.72 380.39 413.67 381.85 415.06 382.89L416.67 384.12C416.876 384.268 417.073 384.428 417.26 384.6C417.26 384.6 417.07 384.51 416.69 384.26L415.04 383.16C413.62 382.16 411.56 380.78 409.1 379.05L408.92 378.92L409.05 378.73L411.73 374.93L413.21 372.85L413.98 371.78L414.37 371.23L414.56 370.96L414.66 370.82V370.75C414.33 370.8 415.1 370.67 415.02 370.68L423.02 376.45L423.2 376.58L423.07 376.77C421.3 379.2 419.81 381.2 418.78 382.58L417.58 384.15C417.489 384.31 417.381 384.461 417.26 384.6V384.6Z" fill="#FAFAFA"/>
<path d="M367.25 389.13C367.367 388.903 367.501 388.686 367.65 388.48L368.78 386.8C369.78 385.36 371.13 383.35 372.78 380.97L372.83 381.28L364.78 375.57L365.14 375.51L365.09 375.58L365 375.72L364.8 375.99L364.41 376.54C364.15 376.9 363.89 377.25 363.64 377.61C363.13 378.31 362.64 379.01 362.15 379.68L359.42 383.45V383.14C361.78 384.85 363.73 386.31 365.12 387.35L366.73 388.58C366.939 388.725 367.136 388.885 367.32 389.06C367.121 388.964 366.93 388.85 366.75 388.72L365 387.68C363.57 386.68 361.51 385.31 359 383.57L358.82 383.44L358.95 383.26L361.63 379.46L363.11 377.38L363.88 376.3L364.27 375.76L364.46 375.48L364.56 375.35L364.61 375.28L364.97 375.22L372.97 380.99L373.15 381.12L373.02 381.3C371.25 383.74 369.76 385.74 368.73 387.11L367.53 388.69C367.448 388.843 367.355 388.991 367.25 389.13V389.13Z" fill="#FAFAFA"/>
<path d="M372 425.29C372.121 425.069 372.254 424.855 372.4 424.65L373.53 422.96C374.53 421.52 375.88 419.51 377.53 417.13V417.45L369.53 411.74L369.89 411.68L369.84 411.75L369.74 411.89L369.54 412.16L369.15 412.71C368.89 413.07 368.64 413.43 368.38 413.78C367.88 414.49 367.38 415.18 366.9 415.85L364.17 419.62L364.11 419.31C366.47 421.02 368.42 422.48 369.81 423.52L371.43 424.75C371.635 424.896 371.829 425.057 372.01 425.23C371.809 425.136 371.618 425.022 371.44 424.89L369.8 423.78C368.38 422.78 366.31 421.41 363.85 419.68L363.67 419.55L363.8 419.36L366.49 415.56L367.96 413.48L368.73 412.41L369.12 411.86L369.32 411.59L369.41 411.45L369.46 411.38L369.83 411.32L377.83 417.09L378.02 417.22L377.89 417.4C376.12 419.84 374.62 421.84 373.59 423.22L372.39 424.79C372.19 425.14 372.05 425.32 372 425.29Z" fill="#FAFAFA"/>
<path d="M328.67 395.24C328.784 395.015 328.918 394.801 329.07 394.6C329.37 394.14 329.75 393.6 330.2 392.91C331.2 391.48 332.55 389.46 334.2 387.08L334.26 387.4L326.26 381.69L326.62 381.63L326.57 381.7L326.47 381.84L326.28 382.11L325.89 382.66L325.12 383.73C324.61 384.44 324.12 385.13 323.63 385.8C322.63 387.14 321.75 388.41 320.9 389.57L320.85 389.26C323.21 390.97 325.16 392.43 326.55 393.47L328.16 394.7C328.366 394.848 328.563 395.008 328.75 395.18C328.75 395.18 328.55 395.09 328.18 394.84L326.53 393.74C325.11 392.74 323.05 391.36 320.59 389.63L320.41 389.5L320.54 389.31L323.22 385.51L324.7 383.43L325.47 382.36L325.85 381.81L326.05 381.54L326.15 381.4L326.2 381.33L326.56 381.27L334.56 387.04L334.74 387.17L334.61 387.36C332.84 389.79 331.35 391.79 330.31 393.17L329.12 394.74C328.99 394.924 328.839 395.092 328.67 395.24Z" fill="#FAFAFA"/>
<path d="M397.09 399.55C397.335 399.072 397.616 398.614 397.93 398.18C398.46 397.36 399.21 396.23 400.13 394.9L400.18 395.22L395.65 392.02L396 392L395.94 392.07L395.83 392.23L395.61 392.53C395.47 392.74 395.32 392.94 395.18 393.14C394.89 393.53 394.61 393.92 394.34 394.3L392.8 396.41L392.75 396.1C394.05 397.1 395.12 397.89 395.89 398.49C396.325 398.795 396.74 399.13 397.13 399.49C396.693 399.272 396.275 399.018 395.88 398.73C395.07 398.21 393.88 397.42 392.48 396.45L392.3 396.32L392.43 396.13L393.93 393.99L394.76 392.82L395.19 392.21L395.41 391.91L395.52 391.75V391.67L395.88 391.61L400.37 394.86L400.56 395L400.43 395.18C399.43 396.56 398.55 397.68 397.95 398.44C397.696 398.834 397.409 399.206 397.09 399.55V399.55Z" fill="#FAFAFA"/>
<path d="M440.09 379.23C440.346 378.762 440.626 378.308 440.93 377.87C441.47 377.05 442.22 375.87 443.14 374.59L443.19 374.9L438.66 371.7L439.02 371.64V371.72L438.91 371.87L438.69 372.18L438.26 372.78L437.42 373.94L435.88 376.06L435.82 375.74C437.12 376.74 438.2 377.53 438.97 378.13C439.406 378.43 439.817 378.765 440.2 379.13C439.766 378.917 439.351 378.666 438.96 378.38C438.15 377.85 436.96 377.07 435.56 376.09L435.38 375.96L435.51 375.77L437.01 373.63L437.84 372.46L438.27 371.86L438.49 371.55L438.6 371.4L438.65 371.32L439.01 371.26L443.5 374.51L443.69 374.65L443.55 374.83C442.55 376.21 441.67 377.33 441.08 378.09C440.789 378.502 440.457 378.884 440.09 379.23V379.23Z" fill="#FAFAFA"/>
<path d="M337.46 372.59C337.709 372.118 337.99 371.664 338.3 371.23C338.83 370.41 339.58 369.23 340.5 367.95L340.55 368.26L336 365.07L336.36 365.01L336.3 365.09L336.19 365.25L335.97 365.55L335.54 366.15L334.7 367.32L333.16 369.43L333.1 369.11C334.4 370.11 335.48 370.9 336.25 371.51C336.681 371.821 337.095 372.155 337.49 372.51C337.05 372.302 336.631 372.051 336.24 371.76C335.43 371.23 334.24 370.45 332.84 369.47L332.66 369.34L332.79 369.16L334.29 367.01L335.12 365.84L335.55 365.24L335.77 364.93L335.88 364.78V364.7L336.24 364.64L340.73 367.9L340.92 368.03L340.78 368.21C339.78 369.59 338.91 370.72 338.31 371.48C338.058 371.873 337.774 372.244 337.46 372.59V372.59Z" fill="#FAFAFA"/>
<path d="M409.82 419.86C410.067 419.916 410.311 419.986 410.55 420.07L412.48 420.69C414.13 421.23 416.48 421.99 419.2 422.94L418.91 423.08C419.86 420.35 420.98 417.16 422.16 413.76C422.16 413.69 422.46 414.39 422.32 414.09H422.25L422 414L421.68 413.89L421.05 413.66L419.8 413.22L417.4 412.37L413 410.77L413.29 410.63C412.29 413.37 411.44 415.63 410.82 417.27C410.53 418.03 410.28 418.66 410.09 419.17C410.005 419.406 409.904 419.637 409.79 419.86C409.825 419.642 409.882 419.427 409.96 419.22L410.56 417.33C411.1 415.7 411.88 413.33 412.86 410.48L412.94 410.27L413.15 410.35L417.55 411.87L419.96 412.72L421.2 413.15L421.83 413.38L422.15 413.49L422.31 413.54H422.39C422.24 413.24 422.58 413.95 422.55 413.87C421.33 417.26 420.2 420.44 419.22 423.17L419.15 423.38L418.94 423.3C416.11 422.3 413.77 421.4 412.16 420.79L410.32 420.07C410.147 420.017 409.979 419.947 409.82 419.86V419.86Z" fill="#FAFAFA"/>
<g opacity="0.2">
<path opacity="0.2" d="M310.73 373.29C313.61 378.19 316.5 383.13 318.37 388.5C320.026 392.906 320.623 397.641 320.11 402.32C319.575 407.029 317.269 411.358 313.66 414.43C312.639 415.33 311.357 415.881 310 416C307.59 416.07 305.67 414 304.59 411.83C301.97 406.56 302.38 400.34 303.17 394.51C304 388.315 305.179 382.172 306.7 376.11" fill="black"/>
</g>
<path d="M315.16 401.45L305.52 333.57V322.46C305.52 322.46 304.05 297.46 304.22 295C304.41 292.21 303.1 291.44 302.07 291.44C300.45 291.44 299.18 293.35 298.94 295.74C298.86 296.57 298.09 309.74 298.09 309.74C297.411 308.451 296.643 307.211 295.79 306.03C294.01 303.44 289.55 301.73 284.86 301.57C280.17 301.41 278.86 301.78 278.7 303.57C278.688 303.914 278.754 304.256 278.892 304.571C279.031 304.886 279.239 305.166 279.5 305.39C280.31 306.168 281.378 306.62 282.5 306.66C290 307.02 291.75 311.16 291.75 311.16V312.61C291.75 312.61 287.42 309.06 283.7 310.19C283.154 310.358 282.644 310.63 282.2 310.99C281.178 310.924 280.155 311.127 279.235 311.578C278.315 312.03 277.529 312.714 276.956 313.564C276.382 314.413 276.041 315.398 275.967 316.42C275.892 317.442 276.086 318.466 276.53 319.39C276.701 319.857 277.009 320.261 277.414 320.549C277.82 320.836 278.303 320.994 278.8 321C279.313 320.878 279.787 320.631 280.18 320.28C280.4 320.109 280.634 319.959 280.88 319.83L281.45 323.9C281.45 323.9 283.22 332.98 283.54 337.02L282.37 403.47C282.332 405.658 282.729 407.831 283.54 409.863C284.35 411.896 285.557 413.746 287.09 415.307C288.623 416.868 290.452 418.109 292.469 418.955C294.486 419.802 296.652 420.239 298.84 420.24C301.2 420.24 303.532 419.734 305.679 418.755C307.826 417.776 309.738 416.348 311.285 414.567C312.832 412.785 313.979 410.692 314.648 408.429C315.316 406.166 315.491 403.786 315.16 401.45V401.45Z" fill="#B78876"/>
<path d="M303.43 332.53C302.03 332.81 300.68 331.71 300.02 330.44C299.36 329.17 299.15 327.73 298.58 326.44C296.88 322.53 292.28 320.44 290.77 316.44C290.56 315.88 290.48 315.13 290.98 314.8C291.48 314.47 292.05 314.8 292.51 315.1L304.41 322.76" fill="#B78876"/>
<path d="M304.41 322.7C304.053 322.318 303.65 321.982 303.21 321.7C302.4 321.13 301.21 320.32 299.77 319.34L294.61 316L293.11 315C292.563 314.509 291.844 314.254 291.11 314.29C290.879 314.348 290.67 314.475 290.511 314.653C290.352 314.831 290.251 315.053 290.22 315.29C290.174 315.678 290.219 316.072 290.35 316.44C290.598 317.093 290.917 317.716 291.3 318.3C292.86 320.64 294.97 322.18 296.46 323.91C297.187 324.694 297.791 325.584 298.25 326.55C298.66 327.46 298.89 328.4 299.2 329.24C299.379 329.946 299.709 330.604 300.169 331.169C300.628 331.734 301.205 332.191 301.86 332.51C302.104 332.626 302.37 332.686 302.64 332.686C302.91 332.686 303.176 332.626 303.42 332.51C302.927 332.481 302.443 332.366 301.99 332.17C301.415 331.83 300.918 331.373 300.53 330.828C300.143 330.284 299.873 329.665 299.74 329.01C299.495 328.069 299.202 327.141 298.86 326.23C298.404 325.184 297.783 324.218 297.02 323.37C295.5 321.55 293.41 319.98 292.02 317.81C291.677 317.284 291.389 316.725 291.16 316.14C290.96 315.58 291.03 315.04 291.35 315.01C291.67 314.98 292.23 315.27 292.74 315.6L294.25 316.6L299.5 319.88C301 320.8 302.22 321.53 303.08 322.03C303.49 322.314 303.938 322.539 304.41 322.7V322.7Z" fill="#AA6550"/>
<path d="M291.93 312.69C291.908 311.784 291.671 310.897 291.24 310.1C290.728 309.283 289.967 308.653 289.07 308.3C287.948 307.863 286.763 307.609 285.56 307.55C284.317 307.486 283.084 307.295 281.88 306.98C280.873 306.701 279.956 306.163 279.22 305.42C278.968 305.159 278.781 304.841 278.675 304.493C278.569 304.146 278.547 303.778 278.61 303.42C278.645 303.166 278.745 302.924 278.9 302.72C278.95 302.72 278.9 302.99 278.81 303.45C278.793 303.767 278.844 304.085 278.962 304.38C279.079 304.675 279.26 304.941 279.49 305.16C280.207 305.815 281.077 306.279 282.02 306.51C283.2 306.785 284.401 306.955 285.61 307.02C286.868 307.093 288.104 307.373 289.27 307.85C290.242 308.261 291.049 308.987 291.56 309.91C291.889 310.526 292.063 311.212 292.07 311.91C292.092 312.178 292.044 312.447 291.93 312.69Z" fill="#AA6550"/>
<path d="M299.05 294.82C299.076 295.692 299.029 296.565 298.91 297.43C298.77 299.22 298.61 301.35 298.43 303.7C298.25 306.05 298.14 308.19 298.03 309.98C298.037 310.855 297.96 311.729 297.8 312.59C297.662 311.724 297.618 310.845 297.67 309.97C297.67 308.36 297.73 306.12 297.91 303.67C298.09 301.22 298.32 298.99 298.55 297.39C298.617 296.517 298.784 295.654 299.05 294.82V294.82Z" fill="#AA6550"/>
<path d="M288.78 315.44C288.78 315.44 288.5 315.33 288.04 315.1C287.743 314.92 287.411 314.806 287.065 314.766C286.72 314.726 286.371 314.762 286.04 314.87C285.84 314.958 285.665 315.096 285.534 315.271C285.402 315.447 285.319 315.653 285.29 315.87C285.215 316.434 285.215 317.006 285.29 317.57C285.38 318.269 285.221 318.977 284.84 319.57C284.591 319.872 284.273 320.112 283.913 320.268C283.553 320.424 283.162 320.494 282.77 320.47C282.386 320.45 282.01 320.351 281.666 320.179C281.322 320.007 281.017 319.766 280.77 319.47C280.309 318.94 280.013 318.287 279.92 317.59C279.848 316.462 279.943 315.33 280.2 314.23C280.346 313.485 280.62 312.771 281.01 312.12C281.31 311.67 281.57 311.5 281.58 311.52C281.59 311.54 281.41 311.76 281.18 312.22C280.879 312.885 280.671 313.588 280.56 314.31C280.365 315.372 280.311 316.454 280.4 317.53C280.471 318.144 280.743 318.717 281.173 319.16C281.604 319.603 282.169 319.891 282.78 319.98C283.089 319.998 283.398 319.944 283.683 319.823C283.967 319.701 284.22 319.516 284.42 319.28C284.749 318.782 284.884 318.181 284.8 317.59C284.72 316.986 284.72 316.374 284.8 315.77C284.844 315.488 284.958 315.221 285.133 314.995C285.308 314.77 285.538 314.592 285.8 314.48C286.18 314.366 286.581 314.341 286.971 314.409C287.362 314.477 287.731 314.635 288.05 314.87C288.325 315.016 288.572 315.209 288.78 315.44V315.44Z" fill="#AA6550"/>
<path d="M281 319.14C281 319.14 281.08 319.42 280.88 319.88C280.725 320.196 280.499 320.473 280.22 320.688C279.94 320.903 279.616 321.05 279.27 321.12C278.747 321.205 278.21 321.15 277.714 320.961C277.219 320.771 276.783 320.453 276.45 320.04C275.664 319.04 275.288 317.777 275.4 316.51C275.482 315.252 275.958 314.052 276.76 313.08C277.413 312.298 278.262 311.704 279.22 311.36C279.86 311.124 280.539 311.012 281.22 311.03C281.47 311.014 281.719 311.055 281.95 311.15C281.068 311.208 280.199 311.393 279.37 311.7C278.499 312.067 277.733 312.644 277.14 313.38C276.429 314.288 276.007 315.389 275.93 316.54C275.821 317.678 276.142 318.816 276.83 319.73C277.111 320.083 277.477 320.359 277.892 320.534C278.308 320.709 278.761 320.776 279.21 320.73C279.517 320.68 279.81 320.565 280.068 320.392C280.327 320.22 280.546 319.994 280.71 319.73C281 319.4 281 319.13 281 319.14Z" fill="#AA6550"/>
<path d="M289.47 328.51C289.47 328.46 289.94 328.4 290.72 328.61C291.774 328.914 292.696 329.562 293.34 330.45L292.89 330.54C292.986 329.959 293.12 329.384 293.29 328.82C293.807 326.805 294.869 324.971 296.36 323.52C295.314 325.241 294.452 327.068 293.79 328.97C293.62 329.54 293.48 330.11 293.38 330.63L293.26 331.22L292.93 330.73C292.352 329.913 291.55 329.281 290.62 328.91C290.23 328.798 289.846 328.664 289.47 328.51V328.51Z" fill="#AA6550"/>
<path d="M290.71 306.17C290.83 306.24 290.26 307.17 289.07 307.57C287.88 307.97 286.88 307.65 286.93 307.52C286.98 307.39 287.87 307.45 288.93 307.07C289.99 306.69 290.59 306.07 290.71 306.17Z" fill="#AA6550"/>
<path opacity="0.8" d="M354.21 205.17C360.332 202.144 365.547 197.555 369.326 191.868C373.106 186.18 375.316 179.595 375.734 172.779C376.152 165.963 374.763 159.157 371.707 153.05C368.651 146.943 364.036 141.751 358.33 138C344.39 128.84 325.33 129.05 312.87 117.92C292 99.2101 302.71 61.6901 284.41 40.4701C273.41 27.7401 254.41 24.7501 237.94 28.3501C217.16 32.9001 210.41 53.0701 195.78 62.8301C182.32 71.8301 172.31 70.2701 156.88 66.0401C126.77 57.7601 112.88 60.2601 93.8201 68.6001C89.0009 70.9904 84.3262 73.6616 79.8201 76.6001C48.4601 96.5001 30.0601 135.79 35.9801 172.6C42.4001 212.6 76.9801 246.37 117.06 251.9C128.4 253.47 140.61 253.18 150.23 259.38C168.64 271.26 167.23 298.99 180.18 316.67C190.33 330.54 208.82 336.67 225.92 334.98C243.02 333.29 258.82 324.86 272.4 314.34C285 304.57 298.31 292.16 314.16 293.83C321.42 294.59 327.98 298.33 334.67 301.25C341.36 304.17 349.02 306.35 355.9 303.88C355.9 303.88 350.38 301.69 349.72 298.19C347.6 286.85 354.44 285.19 362.96 285.19C344.14 283.07 327.17 272.67 317.96 256.19C312.12 245.75 309.86 231.84 317.1 222.33C325.42 211.32 341.78 211.31 354.21 205.17Z" fill="#2D2D2D"/>
<path d="M327.63 237.53C326.937 240.634 327.307 243.881 328.68 246.75C330.04 249.556 332.224 251.879 334.94 253.41C345.73 259.62 356.03 250.54 356.94 240.48C357.139 237.791 356.533 235.104 355.2 232.76C348.56 220.77 330.59 224.15 327.63 237.53Z" fill="#8850BF"/>
<path opacity="0.8" d="M327.63 237.53C326.937 240.634 327.307 243.881 328.68 246.75C330.04 249.556 332.224 251.879 334.94 253.41C345.73 259.62 356.03 250.54 356.94 240.48C357.139 237.791 356.533 235.104 355.2 232.76C348.56 220.77 330.59 224.15 327.63 237.53Z" fill="white"/>
<path d="M185.81 89.1101C185.71 89.2329 185.603 89.3497 185.49 89.4601L184.49 90.4601L180.63 94.2201L166.31 108L166.36 107.86C167.04 122.86 167.97 143.24 169 165.91V166.42L168.57 166.14L163.4 162.68L130.6 140.68L130.53 140.63V140.56C125.63 125.94 121.53 113.62 118.59 104.92L115.25 94.8001C114.87 93.6401 114.58 92.8001 114.38 92.1201C114.29 91.8301 114.22 91.6001 114.17 91.4201C114.135 91.3445 114.115 91.2631 114.11 91.1801L114.2 91.4101L114.45 92.0901C114.67 92.7201 114.98 93.6101 115.39 94.7501C116.2 97.1101 117.39 100.52 118.86 104.83C121.86 113.51 126.01 125.83 130.97 140.41L130.88 140.29L163.71 162.2L168.88 165.66L168.48 165.89C167.48 143.22 166.64 122.89 165.99 107.89V107.81L166.05 107.75L180.49 94.0501L184.42 90.3601L185.42 89.3601C185.68 89.2101 185.81 89.1101 185.81 89.1101Z" fill="#8850BF"/>
<path d="M170.54 159.1L170.44 162.49L173.17 164.49L169.92 165.44L168.85 168.65L166.95 165.85L163.56 165.83L165.64 163.16L164.61 159.93L167.79 161.08L170.54 159.1Z" fill="#8850BF"/>
<path d="M131.03 136.14L131.1 138.33L132.94 139.51L130.88 140.25L130.32 142.37L128.98 140.64L126.79 140.76L128.02 138.95L127.23 136.91L129.33 137.52L131.03 136.14Z" fill="#8850BF"/>
<path d="M114.01 87.2301L115.67 89.3501L118.35 89.1901L116.84 91.4201L117.82 93.9201L115.24 93.1701L113.16 94.8801L113.07 92.1901L110.81 90.7401L113.33 89.8301L114.01 87.2301Z" fill="#8850BF"/>
<path d="M184.16 85.1001L185.81 87.2301L188.5 87.0701L186.99 89.2901L187.97 91.8001L185.38 91.0501L183.31 92.7601L183.22 90.0701L180.95 88.6201L183.48 87.7101L184.16 85.1001Z" fill="#8850BF"/>
<path d="M165.74 105.6L166.8 106.95L168.51 106.85L167.55 108.27L168.18 109.87L166.53 109.39L165.2 110.48L165.14 108.77L163.7 107.84L165.31 107.26L165.74 105.6Z" fill="#8850BF"/>
<path d="M242.85 180.61C242.805 180.836 242.748 181.06 242.68 181.28C242.53 181.76 242.33 182.39 242.09 183.19L239.82 190.19L232 213.87L231.88 214.25L231.58 213.98L227.81 210.51L214.81 198.51H215.11L202.21 208.37L198.54 211.13L197.54 211.84C197.433 211.931 197.316 212.008 197.19 212.07C197.281 211.961 197.385 211.864 197.5 211.78L198.44 211.01L202.03 208.15L214.81 198.15L214.97 198.03L215.11 198.16L228.11 210.09L232 213.6L231.58 213.71L239.58 190.12L241.99 183.12L242.66 181.24C242.699 181.024 242.763 180.812 242.85 180.61V180.61Z" fill="#8850BF"/>
<path d="M230.81 209.83L232.09 211.31L234.03 211.1L233.02 212.77L233.82 214.56L231.91 214.11L230.47 215.42L230.31 213.47L228.61 212.5L230.41 211.74L230.81 209.83Z" fill="#8850BF"/>
<path d="M196.46 211.01L197.09 211.75L198.06 211.65L197.55 212.48L197.95 213.36L197 213.14L196.28 213.79L196.21 212.82L195.36 212.34L196.26 211.97L196.46 211.01Z" fill="#8850BF"/>
<path d="M242.6 180.03L243.24 180.77L244.2 180.66L243.7 181.49L244.1 182.38L243.15 182.16L242.43 182.81L242.35 181.84L241.51 181.36L242.4 180.98L242.6 180.03Z" fill="#8850BF"/>
<path d="M214.66 197.2L215.3 197.94L216.27 197.83L215.76 198.66L216.16 199.55L215.21 199.32L214.49 199.98L214.41 199.01L213.57 198.52L214.47 198.15L214.66 197.2Z" fill="#8850BF"/>
<path d="M254.89 292.87C254.843 293.038 254.783 293.202 254.71 293.36L254.14 294.76C253.6 296.01 252.85 297.76 251.9 300.03C249.9 304.59 247.14 311.03 243.82 318.72V318.83H243.7L218.3 323.03L209.79 324.42L209.4 324.49L209.5 324.11L215 302.05L215.12 302.29L200.2 295.62L196.08 293.75L195.01 293.24C194.884 293.188 194.764 293.125 194.65 293.05C194.781 293.079 194.909 293.122 195.03 293.18L196.13 293.63L200.29 295.4L215.29 301.91L215.45 301.98V302.15C213.86 308.55 211.98 316.07 209.95 324.25L209.65 323.93L218.17 322.54L243.57 318.4L243.4 318.54C246.8 310.88 249.64 304.46 251.65 299.92L254 294.7L254.63 293.33C254.694 293.165 254.781 293.01 254.89 292.87V292.87Z" fill="#8850BF"/>
<path d="M212.71 321.44L212.02 323.27L213.13 324.88L211.18 324.78L209.99 326.34L209.48 324.45L207.64 323.8L209.27 322.73L209.32 320.78L210.84 322L212.71 321.44Z" fill="#8850BF"/>
<path d="M195.28 291.82L194.93 292.73L195.48 293.53L194.51 293.48L193.92 294.25L193.67 293.31L192.75 292.99L193.56 292.46L193.59 291.49L194.34 292.1L195.28 291.82Z" fill="#8850BF"/>
<path d="M244.53 317.58L244.18 318.49L244.74 319.29L243.76 319.24L243.18 320.01L242.92 319.07L242 318.75L242.82 318.22L242.84 317.25L243.6 317.86L244.53 317.58Z" fill="#8850BF"/>
<path d="M216.11 301.22L215.76 302.13L216.31 302.93L215.34 302.88L214.75 303.66L214.5 302.72L213.58 302.4L214.4 301.86L214.42 300.89L215.18 301.5L216.11 301.22Z" fill="#8850BF"/>
<path d="M256.07 291.96L255.72 292.87L256.27 293.67L255.3 293.62L254.71 294.39L254.46 293.46L253.54 293.13L254.35 292.6L254.38 291.63L255.13 292.24L256.07 291.96Z" fill="#8850BF"/>
<path d="M235.18 98.58C241.034 98.58 245.78 93.8342 245.78 87.98C245.78 82.1258 241.034 77.38 235.18 77.38C229.326 77.38 224.58 82.1258 224.58 87.98C224.58 93.8342 229.326 98.58 235.18 98.58Z" fill="#8850BF"/>
<path d="M113.063 211.831C116.139 193.503 103.776 176.151 85.4482 173.074C67.1203 169.997 49.7683 182.361 46.6913 200.689C43.6144 219.017 55.9778 236.369 74.3057 239.445C92.6336 242.522 109.986 230.159 113.063 211.831Z" fill="#8850BF"/>
<g opacity="0.3">
<path opacity="0.3" d="M75.5 216.75C75.502 217.836 75.1819 218.898 74.5803 219.802C73.9787 220.706 73.1226 221.411 72.1202 221.828C71.1178 222.246 70.0141 222.356 68.9488 222.146C67.8834 221.937 66.9043 221.415 66.1351 220.649C65.3659 219.883 64.8412 218.905 64.6275 217.841C64.4137 216.776 64.5204 215.672 64.9341 214.668C65.3478 213.664 66.0499 212.806 66.9516 212.201C67.8534 211.596 68.9142 211.272 70 211.27C70.721 211.269 71.4351 211.409 72.1017 211.684C72.7683 211.959 73.3742 212.362 73.885 212.871C74.3957 213.38 74.8012 213.984 75.0783 214.65C75.3554 215.315 75.4987 216.029 75.5 216.75V216.75Z" fill="white"/>
</g>
<g opacity="0.3">
<path opacity="0.3" d="M67.7101 200.92C67.7081 201.551 67.5193 202.166 67.1676 202.69C66.8159 203.213 66.317 203.62 65.7339 203.86C65.1508 204.1 64.5098 204.162 63.8916 204.038C63.2735 203.913 62.706 203.609 62.2609 203.162C61.8158 202.716 61.5129 202.147 61.3906 201.529C61.2684 200.91 61.3321 200.269 61.5739 199.687C61.8156 199.105 62.2245 198.607 62.7488 198.257C63.2732 197.907 63.8896 197.72 64.5201 197.72C64.9398 197.72 65.3555 197.803 65.7431 197.964C66.1308 198.125 66.4829 198.361 66.7793 198.658C67.0756 198.955 67.3104 199.308 67.4701 199.696C67.6298 200.084 67.7114 200.5 67.7101 200.92V200.92Z" fill="white"/>
</g>
<path d="M47.23 214.43C47.38 215.02 18.43 242.79 25.89 248.71C33.35 254.63 64.74 239.45 91.5 217.83C118.26 196.21 142.71 170 136 163C129.29 156 95.87 176.62 95.87 176.62L99.87 179.17C99.87 179.17 120.09 166.17 126.49 171.23C132.89 176.29 114.66 196 88.93 214.75C63.2 233.5 38.34 246.75 34.48 241.57C30.62 236.39 48.83 219.26 48.83 219.26L47.23 214.43Z" fill="#8850BF"/>
<g opacity="0.3">
<path opacity="0.3" d="M47.23 214.43C47.38 215.02 18.43 242.79 25.89 248.71C33.35 254.63 64.74 239.45 91.5 217.83C118.26 196.21 142.71 170 136 163C129.29 156 95.87 176.62 95.87 176.62L99.87 179.17C99.87 179.17 120.09 166.17 126.49 171.23C132.89 176.29 114.66 196 88.93 214.75C63.2 233.5 38.34 246.75 34.48 241.57C30.62 236.39 48.83 219.26 48.83 219.26L47.23 214.43Z" fill="black"/>
</g>
<g opacity="0.3">
<path opacity="0.3" d="M61.33 182.55C61.6 182.87 59.33 184.81 56.74 188.69C53.3258 193.675 51.4426 199.548 51.3218 205.589C51.201 211.629 52.8479 217.573 56.06 222.69C58.49 226.69 60.69 228.69 60.4 229.02C60.11 229.35 57.53 227.69 54.53 223.72C52.797 221.387 51.4219 218.809 50.45 216.07C47.9746 209.261 48.1244 201.775 50.87 195.07C51.9487 192.369 53.425 189.845 55.25 187.58C58.4 183.76 61.17 182.31 61.33 182.55Z" fill="white"/>
</g>
<path d="M111.15 279.18L111.59 279.99C112.083 280.894 112.826 281.637 113.73 282.13L114.53 282.57L113.73 283.01C112.825 283.497 112.081 284.237 111.59 285.14L111.15 285.95L110.71 285.14C110.213 284.241 109.471 283.503 108.57 283.01L107.77 282.57L108.57 282.13C109.469 281.631 110.211 280.889 110.71 279.99L111.15 279.18Z" fill="#8850BF"/>
<path d="M255.92 51.16L256.27 51.82C256.674 52.547 257.273 53.1463 258 53.55L258.66 53.91L258 54.27C257.272 54.672 256.672 55.2717 256.27 56L255.92 56.65L255.56 56C255.162 55.2626 254.557 54.6577 253.82 54.26L253.17 53.9L253.82 53.54C254.555 53.1437 255.159 52.5428 255.56 51.81L255.92 51.16Z" fill="#8850BF"/>
<path d="M79.6598 127.53L80.3797 128.72C81.1873 130.07 82.3682 131.157 83.7797 131.85L85.0297 132.47L83.8298 133.19C82.4849 134.003 81.3992 135.183 80.6997 136.59L80.0798 137.85L79.3597 136.65C78.5585 135.31 77.3934 134.224 75.9997 133.52L74.7397 132.9L75.9398 132.18C77.2871 131.37 78.3735 130.19 79.0697 128.78L79.6598 127.53Z" fill="#8850BF"/>
<path d="M248.08 149.83L248.8 151.03C249.606 152.377 250.783 153.464 252.19 154.16L253.45 154.78L252.25 155.5C250.903 156.31 249.816 157.49 249.12 158.9L248.5 160.16L247.78 158.96C246.972 157.611 245.791 156.524 244.38 155.83L243.13 155.21L244.33 154.49C245.674 153.679 246.757 152.499 247.45 151.09L248.08 149.83Z" fill="#8850BF"/>
<path d="M301.74 272.15L302.48 273.97C303.29 275.317 304.47 276.404 305.88 277.1L307.13 277.72L305.93 278.44C304.583 279.25 303.496 280.43 302.8 281.84L302.18 283.56L301.46 281.89C300.647 280.545 299.467 279.46 298.06 278.76L296.81 278.14L298.01 277.42C299.352 276.608 300.437 275.433 301.14 274.03L301.74 272.15Z" fill="#8850BF"/>
<path d="M288.27 254.23L288.59 255.03C288.945 255.618 289.462 256.09 290.08 256.39L290.62 256.67L290.1 256.98C289.512 257.338 289.037 257.854 288.73 258.47L288.46 259.22L288.15 258.49C287.792 257.902 287.276 257.427 286.66 257.12L286.11 256.85L286.64 256.54C287.227 256.185 287.7 255.668 288 255.05L288.27 254.23Z" fill="#8850BF"/>
<path d="M164.36 228.21L165.05 228.49C165.827 228.804 166.677 228.887 167.5 228.73L168.23 228.59L167.95 229.28C167.637 230.057 167.554 230.907 167.71 231.73L167.85 232.46L167.16 232.18C166.382 231.872 165.533 231.789 164.71 231.94L163.98 232.08L164.26 231.39C164.568 230.616 164.652 229.77 164.5 228.95L164.36 228.21Z" fill="#8850BF"/>
<path d="M357.16 181L357.5 181.14C357.886 181.299 358.31 181.34 358.72 181.26L359.09 181.19L358.95 181.54C358.791 181.926 358.75 182.35 358.83 182.76L358.9 183.13L358.55 182.99C358.164 182.831 357.74 182.789 357.33 182.87L357 183L357.14 182.65C357.291 182.262 357.329 181.839 357.25 181.43L357.16 181Z" fill="#8850BF"/>
<path d="M228.43 280.19L228.78 280.33C229.167 280.484 229.59 280.526 230 280.45L230.37 280.38L230.23 280.72C230.071 281.11 230.029 281.537 230.11 281.95L230.18 282.31L229.83 282.17C229.441 282.021 229.02 281.979 228.61 282.05L228.24 282.12L228.38 281.78C228.538 281.394 228.58 280.97 228.5 280.56L228.43 280.19Z" fill="#8850BF"/>
<path d="M122.07 216.26L122.42 216.39C122.806 216.549 123.23 216.591 123.64 216.51L124 216.44L123.87 216.79C123.711 217.176 123.669 217.6 123.75 218.01L123.82 218.38L123.47 218.24C123.084 218.081 122.66 218.04 122.25 218.12L121.88 218.19L122.02 217.84C122.179 217.454 122.221 217.03 122.14 216.62L122.07 216.26Z" fill="#8850BF"/>
<path d="M146.35 302.9L146.77 303.07C147.25 303.259 147.772 303.311 148.28 303.22L148.73 303.13L148.56 303.56C148.361 304.034 148.309 304.556 148.41 305.06L148.49 305.51L148.07 305.34C147.59 305.151 147.067 305.099 146.56 305.19L146.11 305.28L146.29 304.85C146.481 304.374 146.529 303.853 146.43 303.35L146.35 302.9Z" fill="#8850BF"/>
<path d="M205.7 142.18L206.05 142.32C206.436 142.479 206.86 142.52 207.27 142.44L207.64 142.37L207.5 142.72C207.341 143.106 207.299 143.53 207.38 143.94L207.45 144.31L207.1 144.17C206.714 144.011 206.289 143.97 205.88 144.05L205.51 144.12L205.65 143.77C205.808 143.384 205.85 142.96 205.77 142.55L205.7 142.18Z" fill="#8850BF"/>
<path d="M275.6 68.3401L275.94 68.4801C276.332 68.6308 276.758 68.6689 277.17 68.5901L277.53 68.5301L277.39 68.8701C277.241 69.2585 277.2 69.68 277.27 70.0901L277.34 70.4601L277 70.3201C276.611 70.1606 276.183 70.1189 275.77 70.2001L275.41 70.2701L275.55 69.9201C275.705 69.533 275.747 69.1099 275.67 68.7001L275.6 68.3401Z" fill="#8850BF"/>
<path d="M63.1202 103.61L63.4702 103.75C63.8563 103.909 64.2805 103.951 64.6902 103.87L65.0602 103.8L64.9202 104.15C64.7609 104.536 64.7192 104.96 64.8002 105.37L64.8702 105.73L64.5202 105.6C64.1341 105.441 63.7098 105.4 63.3002 105.48L62.9302 105.55L63.0702 105.2C63.2289 104.814 63.2706 104.39 63.1902 103.98L63.1202 103.61Z" fill="#8850BF"/>
<path d="M245.83 233.82L246.18 233.96C246.566 234.119 246.99 234.16 247.4 234.08L247.77 234.01L247.63 234.36C247.471 234.746 247.429 235.17 247.51 235.58L247.58 235.94L247.23 235.81C246.844 235.651 246.42 235.609 246.01 235.69L245.65 235.75L245.78 235.41C245.939 235.024 245.98 234.6 245.9 234.19L245.83 233.82Z" fill="#8850BF"/>
<path d="M302.561 193.875C316.492 193.55 327.52 181.993 327.194 168.062C326.869 154.132 315.312 143.103 301.381 143.429C287.451 143.755 276.422 155.312 276.748 169.242C277.074 183.173 288.631 194.201 302.561 193.875Z" fill="#8850BF"/>
<g opacity="0.4">
<path opacity="0.4" d="M310.19 159C310.208 158.184 310.468 157.392 310.937 156.724C311.406 156.057 312.063 155.543 312.824 155.249C313.585 154.955 314.416 154.893 315.212 155.072C316.009 155.251 316.734 155.662 317.296 156.254C317.858 156.846 318.232 157.591 318.37 158.395C318.508 159.199 318.404 160.026 318.071 160.772C317.738 161.517 317.192 162.146 316.501 162.58C315.81 163.014 315.006 163.234 314.19 163.21C313.102 163.179 312.072 162.718 311.322 161.93C310.573 161.141 310.166 160.088 310.19 159Z" fill="black"/>
</g>
<g opacity="0.4">
<path opacity="0.4" d="M318.42 168.6C318.432 168.128 318.584 167.669 318.856 167.283C319.129 166.897 319.51 166.6 319.951 166.43C320.392 166.261 320.873 166.225 321.335 166.329C321.796 166.433 322.216 166.671 322.541 167.014C322.867 167.356 323.084 167.788 323.164 168.253C323.245 168.719 323.186 169.198 322.994 169.63C322.802 170.062 322.487 170.428 322.087 170.68C321.688 170.933 321.223 171.062 320.75 171.05C320.436 171.042 320.127 170.973 319.84 170.845C319.553 170.718 319.294 170.535 319.078 170.308C318.861 170.08 318.692 169.812 318.579 169.519C318.466 169.226 318.412 168.914 318.42 168.6V168.6Z" fill="black"/>
</g>
<g opacity="0.4">
<path opacity="0.4" d="M315.21 176C315.384 176.006 315.551 176.063 315.692 176.164C315.834 176.265 315.942 176.406 316.003 176.568C316.064 176.731 316.076 176.908 316.037 177.077C315.998 177.246 315.91 177.4 315.784 177.519C315.658 177.638 315.499 177.718 315.328 177.747C315.157 177.776 314.981 177.754 314.823 177.684C314.664 177.613 314.53 177.498 314.437 177.351C314.344 177.204 314.296 177.034 314.3 176.86C314.303 176.744 314.328 176.629 314.376 176.522C314.423 176.416 314.491 176.32 314.575 176.24C314.66 176.16 314.76 176.098 314.869 176.056C314.978 176.015 315.094 175.996 315.21 176V176Z" fill="black"/>
</g>
<path d="M261.63 114.69H324.2C324.2 114.69 318.66 104.62 302.56 106.08C287.18 107.48 286.4 101.08 278.56 100.35C270.72 99.6201 264.24 105.56 261.63 114.69Z" fill="#3B3B3B"/>
<path d="M180.76 268.27H259.34C259.34 268.27 252.39 255.62 232.17 257.46C212.85 259.22 211.87 251.24 202.05 250.26C192.23 249.28 184 256.81 180.76 268.27Z" fill="#3C3C3C"/>
<path d="M254.12 226.45H290.7C290.7 226.45 287.47 220.57 278.05 221.45C269.05 222.27 268.6 218.56 264.05 218.1C259.5 217.64 255.65 221.12 254.12 226.45Z" fill="#3B3B3B"/>
</svg>
